<svg width="30" height="30" viewBox="0 0 30 30" fill="none" xmlns="http://www.w3.org/2000/svg">
<rect width="30" height="30" rx="8" fill="white" fill-opacity="0.05"/>
<path fill-rule="evenodd" clip-rule="evenodd" d="M21.7346 9.54544C21.8187 9.46147 21.8854 9.36178 21.9309 9.25204C21.9765 9.1423 21.9999 9.02466 22 8.90585C22.0001 8.78704 21.9767 8.66938 21.9313 8.55958C21.8859 8.44978 21.8194 8.35001 21.7354 8.26594C21.6514 8.18188 21.5518 8.11517 21.442 8.06964C21.3323 8.0241 21.2146 8.00063 21.0958 8.00056C20.977 8.00048 20.8594 8.02381 20.7496 8.06921C20.6398 8.11461 20.54 8.18119 20.4559 8.26515L14.9999 13.7213L9.54541 8.26515C9.37564 8.09538 9.14538 8 8.90528 8C8.66519 8 8.43492 8.09538 8.26515 8.26515C8.09538 8.43493 8 8.6652 8 8.9053C8 9.14539 8.09538 9.37566 8.26515 9.54544L13.7212 15L8.26515 20.4546C8.18109 20.5386 8.1144 20.6384 8.06891 20.7483C8.02342 20.8581 8 20.9758 8 21.0947C8 21.2136 8.02342 21.3313 8.06891 21.4411C8.1144 21.551 8.18109 21.6508 8.26515 21.7348C8.43492 21.9046 8.66519 22 8.90528 22C9.02416 22 9.14188 21.9766 9.25172 21.9311C9.36155 21.8856 9.46135 21.8189 9.54541 21.7348L14.9999 16.2787L20.4559 21.7348C20.6257 21.9044 20.8559 21.9996 21.0958 21.9994C21.3358 21.9993 21.5658 21.9038 21.7354 21.7341C21.905 21.5643 22.0001 21.3341 22 21.0941C21.9999 20.8542 21.9044 20.6241 21.7346 20.4546L16.2786 15L21.7346 9.54544Z" fill="#A3A5A8"/>
</svg>
