<svg width="30" height="30" viewBox="0 0 30 30" fill="none" xmlns="http://www.w3.org/2000/svg">
<circle cx="15" cy="15" r="14" fill="white" stroke="#02000E" stroke-width="2"/>
<path fill-rule="evenodd" clip-rule="evenodd" d="M20.2479 10.7496C20.3134 10.6842 20.3654 10.6065 20.4008 10.521C20.4363 10.4355 20.4546 10.3438 20.4547 10.2513C20.4547 10.1587 20.4366 10.067 20.4012 9.98145C20.3658 9.89589 20.3139 9.81814 20.2485 9.75264C20.1831 9.68713 20.1054 9.63516 20.0199 9.59967C19.9344 9.56419 19.8427 9.5459 19.7501 9.54584C19.6575 9.54579 19.5659 9.56397 19.4803 9.59934C19.3947 9.63472 19.317 9.6866 19.2515 9.75202L15 14.0036L10.7496 9.75202C10.6174 9.61973 10.4379 9.54541 10.2508 9.54541C10.0637 9.54541 9.88432 9.61973 9.75202 9.75202C9.61973 9.88432 9.54541 10.0637 9.54541 10.2508C9.54541 10.4379 9.61973 10.6174 9.75202 10.7496L14.0036 15L9.75202 19.2503C9.68652 19.3158 9.63456 19.3935 9.59911 19.4791C9.56366 19.5647 9.54541 19.6564 9.54541 19.7491C9.54541 19.8417 9.56366 19.9334 9.59911 20.019C9.63456 20.1046 9.68652 20.1824 9.75202 20.2479C9.88432 20.3802 10.0637 20.4545 10.2508 20.4545C10.3435 20.4545 10.4352 20.4363 10.5208 20.4008C10.6064 20.3654 10.6841 20.3134 10.7496 20.2479L15 15.9964L19.2515 20.2479C19.3838 20.38 19.5631 20.4542 19.7501 20.4541C19.9371 20.454 20.1164 20.3796 20.2485 20.2473C20.3806 20.115 20.4548 19.9356 20.4547 19.7486C20.4546 19.5617 20.3802 19.3824 20.2479 19.2503L15.9964 15L20.2479 10.7496Z" fill="black" stroke="black" stroke-width="0.5"/>
</svg>
