<svg width="16" height="16" viewBox="0 0 16 16" fill="none" xmlns="http://www.w3.org/2000/svg">
<path d="M16 8C16 12.4183 12.4183 16 8 16C3.58172 16 0 12.4183 0 8C0 3.58172 3.58172 0 8 0C12.4183 0 16 3.58172 16 8ZM1.6 8C1.6 11.5346 4.46538 14.4 8 14.4C11.5346 14.4 14.4 11.5346 14.4 8C14.4 4.46538 11.5346 1.6 8 1.6C4.46538 1.6 1.6 4.46538 1.6 8Z" fill="white" fill-opacity="0.2"/>
<path d="M16 8C16 12.4183 12.4183 16 8 16C3.58172 16 0 12.4183 0 8C0 3.58172 3.58172 0 8 0C12.4183 0 16 3.58172 16 8ZM1.6 8C1.6 11.5346 4.46538 14.4 8 14.4C11.5346 14.4 14.4 11.5346 14.4 8C14.4 4.46538 11.5346 1.6 8 1.6C4.46538 1.6 1.6 4.46538 1.6 8Z" fill="#FE5493"/>
<path fill-rule="evenodd" clip-rule="evenodd" d="M11.4806 5.37292C11.65 5.53908 11.6526 5.81113 11.4865 5.98056L7.10365 10.4493C7.02334 10.5312 6.91364 10.5776 6.79896 10.5781C6.68428 10.5787 6.57413 10.5334 6.49304 10.4523L4.3446 8.30384C4.1768 8.13603 4.1768 7.86397 4.3446 7.69617C4.51241 7.52836 4.78447 7.52836 4.95227 7.69617L6.79391 9.5378L10.8729 5.37882C11.0391 5.20939 11.3111 5.20675 11.4806 5.37292Z" fill="#FE5493" stroke="#FE5493" stroke-linecap="round" stroke-linejoin="round"/>
</svg>
