<?xml version="1.0" encoding="UTF-8"?>
<svg id="Layer_2" xmlns="http://www.w3.org/2000/svg" version="1.1" viewBox="0 0 544.9 544.9">
  <!-- Generator: Adobe Illustrator 29.3.1, SVG Export Plug-In . SVG Version: 2.1.0 Build 151)  -->
  <defs>
    <style>
      .st0 {
        fill: #fff;
      }
    </style>
  </defs>
  <g id="Layer_1-2">
    <g>
      <path d="M171.9,208.9c0-55.5,45-100.5,100.5-100.5s100.5,45,100.5,100.5-45,100.5-100.5,100.5-100.5-45-100.5-100.5Z"/>
      <path d="M461,424.9c-4.2,5.2-8.6,10.2-13.3,15.1-22.4,23.4-48.8,41.9-78.4,54.8-30.6,13.4-63.2,20.1-96.9,20.1s-66.3-6.8-96.9-20.1c-29.6-12.9-55.9-31.3-78.3-54.8-4.7-4.9-9.1-9.9-13.3-15.1,6.7-17.3,17-32.8,29.8-45.7,24-24,57.1-38.8,93.7-38.8h130c56.2,0,104.3,35.1,123.5,84.5Z"/>
      <path d="M373,208.9c0,55.5-45,100.5-100.5,100.5s-100.5-45-100.5-100.5,45-100.5,100.5-100.5,100.5,45,100.5,100.5Z"/>
      <path d="M461,424.9c-4.2,5.2-8.6,10.2-13.3,15.1-22.4,23.4-48.8,41.9-78.4,54.8-30.6,13.4-63.2,20.1-96.9,20.1s-66.3-6.8-96.9-20.1c-29.6-12.9-55.9-31.3-78.3-54.8-4.7-4.9-9.1-9.9-13.3-15.1,6.7-17.3,17-32.8,29.8-45.7,24-24,57.1-38.8,93.7-38.8h130c56.2,0,104.3,35.1,123.5,84.5Z"/>
      <path class="st0" d="M272.4,0C122,0,0,122,0,272.4s28.7,139.4,75.5,188.3c49.6,51.9,119.5,84.2,196.9,84.2s147.3-32.3,196.9-84.2c46.8-48.9,75.5-115.2,75.5-188.3C544.9,122,422.9,0,272.4,0ZM272.4,108.3c55.5,0,100.5,45,100.5,100.5s-45,100.5-100.5,100.5-100.5-45-100.5-100.5,45-100.5,100.5-100.5ZM447.7,440c-22.4,23.4-48.8,41.9-78.4,54.8-30.6,13.4-63.2,20.1-96.9,20.1s-66.3-6.8-96.9-20.1c-29.6-12.9-55.9-31.3-78.3-54.8-4.7-4.9-9.1-9.9-13.3-15.1,6.7-17.3,17-32.8,29.8-45.7,24-24,57.1-38.8,93.7-38.8h130c56.2,0,104.3,35.1,123.5,84.5-4.2,5.2-8.6,10.2-13.3,15.1Z"/>
    </g>
  </g>
</svg>