<?xml version="1.0" encoding="UTF-8"?>
<svg id="Layer_1" data-name="Layer 1" xmlns="http://www.w3.org/2000/svg" viewBox="0 0 100 100">
  <defs>
    <style>
      .cls-1 {
        fill: #612ab9;
      }

      .cls-2 {
        fill: #25123e;
      }

      .cls-3 {
        fill: #3b3036;
      }

      .cls-4 {
        fill: #a4a7ab;
      }

      .cls-5 {
        fill: #382439;
      }

      .cls-6 {
        fill: #5c3633;
      }

      .cls-7 {
        fill: #faf6f8;
      }

      .cls-8 {
        fill: #430e20;
      }

      .cls-9 {
        fill: #4c2d34;
      }

      .cls-10 {
        fill: #ca7294;
      }

      .cls-11 {
        fill: #611125;
      }

      .cls-12 {
        fill: #d89ba4;
      }

      .cls-13 {
        fill: #565b94;
      }

      .cls-14 {
        fill: #331923;
      }

      .cls-15 {
        fill: #872a66;
      }

      .cls-16 {
        fill: #2d1f3c;
      }

      .cls-17 {
        fill: #34151b;
      }

      .cls-18 {
        fill: #87748a;
      }

      .cls-19 {
        fill: #f496ba;
      }

      .cls-20 {
        fill: #cdd2e5;
      }

      .cls-21 {
        fill: #512aa6;
      }

      .cls-22 {
        fill: #be83a1;
      }

      .cls-23 {
        fill: #b63450;
      }

      .cls-24 {
        fill: #f6bee1;
      }

      .cls-25 {
        fill: #f880c6;
      }

      .cls-26 {
        fill: #e6b0c0;
      }

      .cls-27 {
        fill: #3550a7;
      }

      .cls-28 {
        fill: #513f8f;
      }

      .cls-29 {
        fill: #530e15;
      }

      .cls-30 {
        fill: #9db7f0;
      }

      .cls-31 {
        fill: #8f9ebf;
      }

      .cls-32 {
        fill: #507eda;
      }

      .cls-33 {
        fill: #2b1328;
      }

      .cls-34 {
        fill: #38386a;
      }

      .cls-35 {
        fill: #f6f5f8;
      }

      .cls-36 {
        fill: #233170;
      }

      .cls-37 {
        fill: #772224;
      }

      .cls-38 {
        fill: #aa9da3;
      }

      .cls-39 {
        fill: #380e1e;
      }

      .cls-40 {
        fill: #80b2e4;
      }

      .cls-41 {
        fill: #a8acb2;
      }

      .cls-42 {
        fill: #a54b6f;
      }

      .cls-43 {
        fill: #5f1728;
      }

      .cls-44 {
        fill: #592a38;
      }

      .cls-45 {
        fill: #ca94dd;
      }

      .cls-46 {
        fill: #81182a;
      }

      .cls-47 {
        fill: #3a3d5c;
      }

      .cls-48 {
        fill: #671f5e;
      }

      .cls-49 {
        fill: #d0e5f6;
      }

      .cls-50 {
        fill: #63467c;
      }

      .cls-51 {
        fill: #fbf2ef;
      }

      .cls-52 {
        fill: #b394a7;
      }

      .cls-53 {
        fill: #374472;
      }

      .cls-54 {
        fill: #f1eded;
      }

      .cls-55 {
        fill: #636d98;
      }

      .cls-56 {
        fill: #d0e6f7;
      }

      .cls-57 {
        fill: #e3e0eb;
      }

      .cls-58 {
        fill: #b67fda;
      }

      .cls-59 {
        fill: #c1a4ac;
      }

      .cls-60 {
        fill: #95383c;
      }

      .cls-61 {
        fill: #624d57;
      }

      .cls-62 {
        fill: #d3ccea;
      }

      .cls-63 {
        fill: #f6f4f3;
      }

      .cls-64 {
        fill: #480b11;
      }

      .cls-65 {
        fill: #344299;
      }

      .cls-66 {
        fill: #2c284a;
      }

      .cls-67 {
        fill: #f7ddfa;
      }

      .cls-68 {
        fill: #dda7bb;
      }

      .cls-69 {
        fill: #4e5268;
      }

      .cls-70 {
        fill: #4e2c31;
      }

      .cls-71 {
        fill: #f3eded;
      }

      .cls-72 {
        fill: #db8dc2;
      }

      .cls-73 {
        fill: #eec9d1;
      }

      .cls-74 {
        fill: #f7dad0;
      }

      .cls-75 {
        fill: #790b12;
      }

      .cls-76 {
        fill: #9a5ab7;
      }

      .cls-77 {
        fill: #422f3e;
      }

      .cls-78 {
        fill: #be8984;
      }

      .cls-79 {
        fill: #b13b77;
      }

      .cls-80 {
        fill: #b34ecb;
      }

      .cls-81 {
        fill: #5c324d;
      }

      .cls-82 {
        fill: #b44251;
      }

      .cls-83 {
        fill: #b7534d;
      }

      .cls-84 {
        fill: #98bff4;
      }

      .cls-85 {
        fill: #e8a7a3;
      }

      .cls-86 {
        fill: #73a6ed;
      }

      .cls-87 {
        fill: #e8cdda;
      }

      .cls-88 {
        fill: #5d2733;
      }

      .cls-89 {
        fill: #be4867;
      }

      .cls-90 {
        fill: #d0cbca;
      }

      .cls-91 {
        fill: #e998b9;
      }

      .cls-92 {
        fill: #cf2d63;
      }

      .cls-93 {
        fill: #9a3d65;
      }

      .cls-94 {
        fill: #fafafa;
      }

      .cls-95 {
        fill: #fad3f0;
      }

      .cls-96 {
        fill: #4a4e5e;
      }

      .cls-97 {
        fill: #701947;
      }

      .cls-98 {
        fill: #cf6986;
      }

      .cls-99 {
        fill: #332330;
      }

      .cls-100 {
        fill: #614d50;
      }

      .cls-101 {
        fill: #aa8ebb;
      }

      .cls-102 {
        fill: #df62b8;
      }

      .cls-103 {
        fill: #4c0b23;
      }

      .cls-104 {
        fill: #7f2950;
      }

      .cls-105 {
        fill: #74565b;
      }

      .cls-106 {
        fill: #1d237e;
      }

      .cls-107 {
        fill: #d8a5e9;
      }

      .cls-108 {
        fill: #f4468f;
      }

      .cls-109 {
        fill: #2c2327;
      }

      .cls-110 {
        fill: #9c4f4f;
      }

      .cls-111 {
        fill: #f1d4d4;
      }

      .cls-112 {
        fill: #95363a;
      }

      .cls-113 {
        fill: #632c46;
      }

      .cls-114 {
        fill: #2c122b;
      }

      .cls-115 {
        fill: #943b73;
      }

      .cls-116 {
        fill: #534c7a;
      }

      .cls-117 {
        fill: #d7919b;
      }

      .cls-118 {
        fill: #f3f8fb;
      }

      .cls-119 {
        fill: #88273d;
      }

      .cls-120 {
        fill: #702e3a;
      }

      .cls-121 {
        fill: #5444be;
      }

      .cls-122 {
        fill: #7f314b;
      }

      .cls-123 {
        fill: #4c2c8a;
      }

      .cls-124 {
        fill: #fcfcfc;
      }

      .cls-125 {
        fill: #b97f9e;
      }

      .cls-126 {
        fill: #facdf5;
      }

      .cls-127 {
        fill: #d8dae9;
      }

      .cls-128 {
        fill: #9b65e4;
      }

      .cls-129 {
        fill: #393c93;
      }

      .cls-130 {
        fill: #b355a0;
      }

      .cls-131 {
        fill: #f9f6f6;
      }

      .cls-132 {
        fill: #e37aca;
      }

      .cls-133 {
        fill: #8a2352;
      }

      .cls-134 {
        fill: #b87894;
      }

      .cls-135 {
        fill: #864153;
      }

      .cls-136 {
        fill: #5f89e3;
      }

      .cls-137 {
        fill: #ba4d60;
      }

      .cls-138 {
        fill: #8a7582;
      }

      .cls-139 {
        fill: #b7708a;
      }

      .cls-140 {
        fill: #f78ccf;
      }

      .cls-141 {
        fill: #9f675f;
      }

      .cls-142 {
        fill: #efacac;
      }

      .cls-143 {
        fill: #cf848c;
      }

      .cls-144 {
        fill: #6b66be;
      }

      .cls-145 {
        fill: #976687;
      }

      .cls-146 {
        fill: #c94ebb;
      }

      .cls-147 {
        fill: #d9acda;
      }

      .cls-148 {
        fill: #2a070a;
      }

      .cls-149 {
        fill: #dbcbc6;
      }

      .cls-150 {
        fill: #e1deeb;
      }

      .cls-151 {
        fill: #653445;
      }

      .cls-152 {
        fill: #de85bc;
      }

      .cls-153 {
        fill: #8f8f9c;
      }

      .cls-154 {
        fill: #d8bcbe;
      }
    </style>
  </defs>
  <path class="cls-104" d="M82.48,61.23l-.09-.19s.1.12.09.19Z"/>
  <g>
    <path class="cls-69" d="M61.55,47.6c.83-.11,4.22,1.04,2.58,1.11-.1.18.76.08.44.54-.38-.34-3.28-.67-4.1.17.06,1.08,5.59.62,5.69.69,7.02,2.56-4.87.79-5.69,1.37,1.89,1.36,5.18,2.48,6.09,4.37-3.34-1.98-5.97-4.66-10.71-4.72,1.66-.92-.96-1.02,1.18-2.09.23-.76,1.79-.03,2.52-.8-.12-1.07,1.42-.63,2.02-.62Z"/>
    <path class="cls-126" d="M80.11,59.03c4.57.18.75,7.89-1.92,6.57-.13-1.09,0-7.59,1.92-6.57Z"/>
    <path class="cls-9" d="M68.16,42.36c4.03,1.19,1.59-1.57,4.11-.59-.67-1.67,2.1-1.34,1.99-3.32.92-1.06,1.34,1.21.94,1.54-1.69,1.99-4.03,3.64-5.58,5.13,1.43,2.43.34,5.7,2.17,7.83-.7,3.43-5-9.65-3.63-10.59Z"/>
    <path class="cls-104" d="M81.95,45.32c1.49,1.8-.53,4.88-.08,6.67-.45.61-2.1,3.23-2.28,4.44.96-.6.64,1.19.1,1.52.49.93-1.04,2.39-1.76,1.3-.22.12-.79,3.86-.85,4.42-2.44-3.24,2.61-9.83,4.18-13.73-1.04-.14-.53-1.12-.09-1.74.46-.79-.43-3.59.77-2.88Z"/>
    <path class="cls-138" d="M75.73,38.38c.29,2.61.71,1.77-1.69,2.7.06-.28,1.12-1.47,1.15-1.56-.37-.42-.5-.2-.06-.72-.55-1.23-1.17,1.17-1.13,1.49-.65-.1-.62-.03-.33.51-.76-.35-.47-.01-.33.51-1.72-1.43-.54.55-.7.7-1.38.1-1.74-.96-1.4.93-6.67-.05.44-2.75,2.23-3.85,1.63-3.43.61-8.41,2.27-.7Z"/>
    <path class="cls-53" d="M63.68,41.31c-2.18.49,8.02,10.87,1.38,6.23-1.52.38-1.38-1.51-.89-1.7-.02-.03-.61.02-.72-.11-.04-.69.16-.61-.41-1.14-.08-.21,1.54.05-.02-.86.11.12-.14,1.31-.4.95-.1-.94.48-1.14-.62-1.14.19-1.52-.69-.56.28-1.77.89-.94,2.32-1.51,2.78-2.9.6.75-.79,1.84-1.38,2.44Z"/>
    <path class="cls-79" d="M79.75,67.47c1.82,1.49-5.05,7.55-7.49,4.89.87-1.63,5.05-1.29,5.89-2.47.04-.84-1.16-.34-1.49-.66.03-.98,4.54-3.43,3.09-1.76Z"/>
    <path class="cls-94" d="M71.29,39.99c2.3-.97,2.57-10.32,3.39-6.33.39,2.88-.65,6.72-3.51,7.15.04-.14,1.37-.56.12-.82Z"/>
    <path class="cls-112" d="M75.64,58.44c-.17.86.34,13.57-.37,8.91-.51-3.49-4.34-8.31.37-8.91Z"/>
    <path class="cls-103" d="M82.36,58.38c-1.65-2.03-1.1-.5-2.66-.43,1.02-6.68,3.24-6.87,2.66.43Z"/>
    <path class="cls-64" d="M78.15,69.89c-.88,1.28-4.6,1.31-5.59,2.24-.2.46.71.63,1,.73.48,1.17-2.33,1.49-3.32.55.78-1.36,3.96-1.57,4.69-3.67.21-.34.29-.3.28.1.68.07,2.85-1.24,2.94.06Z"/>
    <path class="cls-137" d="M81.05,49.84c-1.26,1.56-4.39,5.65-3.39,7.26-2.02.28-.56-2.1-.24-2.99-.68,1.17-1.04.23-.79-.53,2.75-2.72,6.75-11.46,4.43-3.74Z"/>
    <path class="cls-63" d="M80.82,47.27c1.93-.25-4.16,6.3-4.14,6.7-1.56-1.29,2.98-5.2,4.14-6.7Z"/>
    <path class="cls-60" d="M67.86,45.06c.45-2.19,2.73,7.19,1.74,6.35-1.31-1.51-2.46-4.39-1.74-6.35Z"/>
    <path class="cls-16" d="M81.17,63.74c-.81,2.46-2.93,4.84-5.46,5.98.14-2.56,3.75-3.98,5.46-5.98Z"/>
    <path class="cls-104" d="M82.36,58.38c1.21,3.74-2.2,1.64-2.52-.39,1.08-1.44,2.01-1.34,2.52.39Z"/>
    <path class="cls-151" d="M75.73,38.38c.66,3.73,1.71,7.08,1.82,10.74-.93.37-.76-.74-.65-1.31-.14,1.01-3.08,4.24-4.03,3.15-.28-.76,3.54-2.94,3.61-3.76.39-.14.55,1.17.2.03-.57-2.08-1.39-4.91-1.15-6.9.93.04-.09-1.45-.37-1.21-.27-.41,1.03-.22-.02-.86l.58.12Z"/>
    <path class="cls-144" d="M82.88,46.25c1.59.25,3.45.51,1.53,2.39-.19-.77-1.67.26-2.2.5-.61-.59.22-4.47.67-2.89Z"/>
    <path class="cls-8" d="M73.04,73.92c-.05,1.77-2.91,2.02-2.85,1.15,1.73-.25-.2-.95-.95-1.09-.31-1.96,2.63-.11,3.79-.06Z"/>
    <path class="cls-123" d="M77.07,72.17c-.54.13,3.25-4.21,3.15-4.23,4.43-2.18-1.78,3.61-3.15,4.23Z"/>
    <path class="cls-36" d="M70.05,75.4c-1.16.26-2-.13-1.96-1.37.84-1.21,5.18.93,1.96,1.37Z"/>
    <path class="cls-146" d="M82.17,67.67c-.91-.49-3.33,1.54-2.84.05,1.87-1.65,7.26-3.44,2.84-.05Z"/>
    <path class="cls-71" d="M84.24,65.72c-1.65.09-3.03,1.67-4.49,1.75-.21-1.06,5.39-3.28,4.49-1.75Z"/>
    <path class="cls-17" d="M64.1,42.39c1.93,2.22,4.52,6.18,5.37,8.98-.4-.35-4.98-8.08-5.37-8.98Z"/>
    <path class="cls-90" d="M63.74,38.84c3.75-2.16,1.97-.43.37,1.68.36-2.49-1.48.95-2.73.51-.22-.72,1.73-2.18,2.36-2.19Z"/>
    <path class="cls-35" d="M84.29,44.39c2.23-.08-1.74,3.03-2.24,1.11-1.2-.71,1.81-1.29,2.24-1.11Z"/>
    <path class="cls-62" d="M82.22,49.14c.19-1.04,3.78-1.65,2.2-.5-.34.05-1.99.82-2.2.5Z"/>
    <path class="cls-8" d="M77.07,72.17c-1.04.65-2.32,1.17-3.5.68.14.04,3.39-.87,3.5-.68Z"/>
    <path class="cls-4" d="M84.29,44.39c-.74-.1-1.67.97-2.34.46.23-.16,3-1.48,2.34-.46Z"/>
    <path class="cls-17" d="M63.63,41.45c-.06.4-.19.26-.51.14.18-.2.7-.4.51-.14Z"/>
    <path class="cls-137" d="M81.67,45.22c-.29-.04.04-.23.09-.28,0,0-.09.28-.09.28Z"/>
    <path class="cls-132" d="M81.92,51.85l-.05.14s-.64-.29.05-.14Z"/>
    <path class="cls-17" d="M75.31,67.68s-.05-.17-.05-.33l.05.33Z"/>
    <path class="cls-17" d="M77.65,48.38l-.09-.19c0,.05.09.13.09.19Z"/>
    <path class="cls-17" d="M77.6,48.05l-.09-.19s.09.11.09.19Z"/>
    <path class="cls-17" d="M74.94,67.87c-.04-.05-.1-.13-.09-.19.05.04.1.12.09.19Z"/>
    <path class="cls-144" d="M82.31,49.33s.14-.08.19-.09c-.07.04-.18.09-.19.09Z"/>
    <path class="cls-28" d="M85.12,47.48c-.23-.95-.32-.87-.54-.69-2.46.62-1.45-1.57.15-1.86-1.7-1.91,2.34-1.48.38,2.55Z"/>
    <path class="cls-140" d="M80.11,59.03c-3.06,1-.04,7.42-2.98,8.34-1.77.27.15-7.06.69-8.49,2.05,1.89,1.68-2.65,2.29.15Z"/>
    <path class="cls-45" d="M76.49,47.2c.45,1-2.84,2.89-3.61,3.76.22.4-.53,1.16-.94.93-1.22-2.16,2.84-6.51,4.55-4.69Z"/>
    <path class="cls-129" d="M71.91,57.49c-.63-.14-.06-2.84-.04-3.06.65-.8,5.01,4.03,3.77,4.01-1.1.6-2.7.55-3.83,1.2-2.43-1.12,5.17-1.89.1-2.15Z"/>
    <path class="cls-32" d="M71.91,57.49c.22-.59,2.45.04,2.3.55-.55.37-4.06,1.4-2.3-.55Z"/>
    <path class="cls-120" d="M76.78,54.62c.27-.23,1.05-2.5,1.5-2.14-.02,1.56-2.8,4.48-.67,4.75-1.3,1.28-2.13-2.26-.83-2.62Z"/>
    <path class="cls-119" d="M77.14,67.36c2.7.26-1.49.41-1.36,2.19.59-.32,2.26-.56,2.75.15-1.56-.45-2.19-.05-3.24.61-.16-1.17.82-4.48,1.86-2.95Z"/>
    <path class="cls-101" d="M75.45,58.54c.84.11-3.3,1.4-3.18,1.1-1.7.12,2.24-1.27,3.18-1.1Z"/>
    <path class="cls-120" d="M76.58,54.72c.76,1.5-1.22.36-1.03-.12.08-.19,1.01.07,1.03.12Z"/>
    <path class="cls-44" d="M74.76,65.63l-.09-.19c.15,0,.18.07.09.19Z"/>
    <path class="cls-129" d="M72.09,59.73l.19-.09c.14.26.03.32-.19.09Z"/>
    <path class="cls-97" d="M71.27,44.19c1.5-.4,1.19,3.71,2.23,2.62-.06,1.52-1.68,3.77-1.79,5.38-1.21-1.71-1.23-5.13-1.54-7.22-.01-.23.06-.81-.28-.86.63-.12,1.17-.83,1.38.08Z"/>
    <path class="cls-3" d="M64.11,40.52c-.28.56-4.19,2.25-3.37,1.2.33-.26,2.96-.57,3.11-1.6-1.1.74-5.74,2.98-2.36.29.63,1.64,5.27-4.89,2.61.11Z"/>
    <path class="cls-17" d="M66.82,48.6c.69-.49,1.85,2.29.74,1.03-.98-.42-2.94-2.66-.74-1.03Z"/>
    <path class="cls-116" d="M60.31,42.51s-.02,1.17-.1,1.21c-.85-.39-1.28-1.27.1-1.21Z"/>
    <path class="cls-61" d="M61.47,44.61c-.52.64-1.35-.52-1.03-.65.15-.06,1.3.32,1.03.65Z"/>
    <path class="cls-3" d="M62,42.61c-.54,0-.77-.09-.18-.37.13.1.16.22.18.37Z"/>
    <path class="cls-53" d="M66.91,49.26c-.02-.53.87-.08.65.38-.29-.2-.5-.28-.65-.38Z"/>
    <path class="cls-17" d="M68.49,51.04c.16.06.72.18.68.31,0,.1-.87-.09-.68-.31Z"/>
    <path class="cls-53" d="M66.07,48.51s.82.15.32.42c-.15-.11-.26-.25-.32-.42Z"/>
    <path class="cls-3" d="M62.28,41.77c.37.42.2.26-.14.42-.03-.25,0-.26.14-.42Z"/>
    <path class="cls-61" d="M52.61,45.04c.87-2.23,9.02-2.95,2.76-1.25,1.4,1.32,7.69,1.21,4.1,1.7,10,5.84-3.24-3.7-6.86-.45Z"/>
    <path class="cls-53" d="M65.03,47.69c.05.08.04.11-.05.14,0,0,.05-.14.05-.14Z"/>
    <path class="cls-17" d="M69.7,51.6s-.07-.13-.09-.19c.05.04.07.13.09.19Z"/>
    <path class="cls-17" d="M70.63,52.54l-.09-.19c.04.05.06.13.09.19Z"/>
    <path class="cls-17" d="M70.3,52.12l-.09-.19c.07.07.08.17.09.19Z"/>
    <path class="cls-17" d="M69.93,51.84c-.1-.03-.14-.08-.09-.19.05.05.06.16.09.19Z"/>
    <path class="cls-41" d="M59.54,48.01c2.5.03-1.79.83-1.85,1.09.08-.69,1.3-.76,1.85-1.09Z"/>
    <path class="cls-38" d="M43.3,39.39c.73-2.1,1.82.63,2.89,1.13.72-.37,3.93.96,2.75,1.58-2.93-1.44-6.69-2.04-9.5-3.71,1.16.33,2.64-.05,3.87,1Z"/>
    <path class="cls-87" d="M75.54,40.34c-.35,1.06-4.95,5.43-4.54,3.29,1.26-.78,3.47-3.51,4.54-3.29Z"/>
    <path class="cls-17" d="M69.3,45.86c.05.09.29,1.84.3,2.12-.34-.02-.8-2.98-.3-2.12Z"/>
    <path class="cls-17" d="M70.15,44.28c.78.62.65,7.7,1.78,7.61.65-.9,1.88-1.02,2.76-1.67.3-.18.62-1.87,1.03-.78-.02-.87,1.02-1.06,1.18-1.63.37,1.4.99,1.56.78,3.22-.23.55-.67,2.23-1.39,2.26,1.31,1.05-1.18,3.92,1.31,3.95-1.08,3.78-.16,9.1-2.39,12.59.58-2.94-.38-7.23-.04-10.41.2-.53.63.37.47-.98,0-.07-.66-.06.09-.28-2.09-1.57-4.07-6.81-3.82-.67-.13,1.36-.81,2.88,1.25,1.83,1.65-.29.46.71.43,1.71.08,1,1.54,2.43-.23.93,1.38,1.1,2.52,7.39,1.36,3.81.18-3.05-9.6-11.56-4.6-8.96-.3-1.31-1.99-5.69-3.54-6.11.5.25,1.05.26,1.58.38-.18.48-.23.36.2.53,1.05.04,2.86,1.54,3.26,1.66-1.64-1.47-1.01-4.57-1.56-5.75-.13.03-.87-2.55-.73-3.36.27.81.33.72.82.12Z"/>
    <path class="cls-131" d="M81.05,49.84c1.78-2.22-3.18,8.68-3.39,7.26-1.4-.99,2.46-6.3,3.39-7.26Z"/>
    <path class="cls-132" d="M81.92,52.32c-.22,1.27-4.37,8.61-2.18,2.77.15-.37,1.97-4.18,2.18-2.77Z"/>
    <path class="cls-137" d="M82.37,45.93c-.11-.11-.18-.22-.18-.37.1.13.19.18.18.37Z"/>
    <path class="cls-137" d="M82.05,45.5s-.07-.13-.09-.19c.06.03.08.12.09.19Z"/>
    <path class="cls-119" d="M78.1,70.03c-.43.5-.85,1.02-1.5.74.42-.14.97-.69,1.5-.74Z"/>
    <path class="cls-142" d="M80.76,50.21c-1.68,1.22-2.54,6.25-3.9,6.47.1-.47,2.78-6.35,3.9-6.47Z"/>
    <g>
      <path class="cls-124" d="M61.6,66.78c-2.42,1.44-9.96-2.44-9.15.33,2.47,1.51,2.71,3.39,3.27,5.37,3.09.5-.84,2.58-1.81,1.36-4.68-1.09-10.37-1.77-14.35-4.55-2.78-3.55,8.51,1.45,10.24,1.67.61-3.02-8.19-5.21-4.52-6.12,2.71-.49.05-1.09-.98-1.56-.97.65-5.53.68-6.97.79-.64.32-7.45-.88-3.8-1.8,2.75-.05,5.17-.11,7.34-.83-.21-.68-.36-1.51.79-1.09,3.01,3,31.92,6.2,19.94,6.44Z"/>
      <path class="cls-14" d="M26.57,54.29c-7.55-.18-2.34,4.7,2.03,6.14.2-1.89-2.7-5.2,1.27-4.53,2.42.51,3.98,4.06,3.23,6.22-.29.55-1.83.18-1.47-.58,2.32-2.78-2.89,1.42-1.27,1.06.21-.72,2.3.26,2.36.38-.03.78-.16.81.18,1.58.83-.08.9.65,1.87.86,1.28-.43.38.59,1.4.83.51.08,2.27-.07,2.35.99-4.71-.27,3.75,3.34,5.77,4.13-8.02-.99-22.33-11.4-25.43-18.74,1.04-1.04,2.51,2.27,3.44,1.79.25-.45,1.3-.85,1.87-.92-.12-2.42,3.56-.51,2.38.8Z"/>
      <path class="cls-29" d="M35.01,56.52c-3.96-1.06-1.66.86-.03,2.14-.24.92-2.14-.82-2.58-1.32-.29.31-1.67-1.33-3.12-1.26-.35-.03-.69.92-1.54-.16-1.54-.28-1.44-5.5-3.53-2.44-.19-.03-.32-.19-.37-.46-1.7.75-1.6-.52-2.56-1-.33.94-1.59.06-1.85-.91-1.76-.1-.54-3.99.6-3.84.42,4.95.11,3.95,3.94,3.84,2.63,1.27-.7-1.75-1.24-2.01-.37.05.07,1.63-.42,1.71-1.82.26-1.79-2.05-2.41-3.93,4.31-5.89,5.54,6.15,15.12,9.64Z"/>
      <path class="cls-44" d="M74.72,65.77c1.03.51-.45,5.28-1.28,4.24-.44-.49.18-.48.52-.6-.36-.2-.26-.4.14-.42.24-.43.96-1.9.1-1.68.12.57-.5,1.35-1.08,1.35.11-2.04-.76.46-1.43-.61,2.16-2.97-2.26,1.09-.49-1.59-1.51.54-3.13.95-1.35,2.18.16,1.88-3.83.03-1.04,2.14,3.83-1.78,3.15.09.14,1.15-1.21.8-.96-.69-1.67-1.48-.43-3.88-4.69,1.26-5.71,2.04,7.12-.05,2.65,2.45-1.75.4-.57-1.46,4.85-5.39,6.26-5.35,1.14.72,2.09-.2,2.48-.6-1.35-1.88,4.06-.81,4.8-2.82.76-.25,1.07.97,1.36,1.64Z"/>
      <path class="cls-134" d="M64.83,65.53c.44.07,5.49-.8,2.99.83.81-.01.99.32.6,1-3.88-.59-8.8,6.41-9.54,4.72-.94,0-.05-1.36,1.07-.74.48.11.87-1.73.83-1.85-.37-.37-2.72,1.57-2.96,1.14-.25-1.78,4.9-1.45,3.8-3.85,2.04-.05,5.43-.59.89-1.26.77-.17,1.56,0,2.33.01Z"/>
      <path class="cls-14" d="M27.32,62.98c.8,0,5.7,4.34,7.06,4.61,2.01,2.04-5.98.47-6.32.57-.75-.45-2.36-5.19-.74-5.18Z"/>
      <path class="cls-77" d="M59.97,75.73c.35.05.68.42.95.41.48-.02,1.96-1.75,2.99-.55-1.32,0-5.31,4.07-5.9,4.08-.17,0-2.4-2.1-2.24-2.56,2.06,2.03,2.42-.2,4.21-1.38Z"/>
      <path class="cls-110" d="M73.7,64.17c-2.25,2.15-5.34,2.42-7.57,2.58,4.43-1.66.72-1.18-1.3-1.22,2.42.6,9.78-3.44,8.87-1.36Z"/>
      <path class="cls-82" d="M36.68,57.56c3.24,1.72,1.88,2.06,6,4.83-1.59-.49-1.37-.97-2.94-.52-1.7-.49-10.26-8.2-3.06-4.31Z"/>
      <path class="cls-17" d="M73.86,70.15c-1.36,1.29-9.38,5.16-8.8,2.26,2.29.44,2.03-.59,2.55-1.73.36,2.29,2.42.17,3.83-.26,1.06.72,1.02-.77,2.43-.27Z"/>
      <path class="cls-122" d="M18.62,49.26c.12,2.07.43,1.11,1,1.65.41.86.86,1.19,1.41,1.61-.62,1.74.85.09.23-.49,1.17-.41.14.65,1.32.91.6.13,1.66-.82,1.61.55-.54,1.74-2.86-.82-2.06,1.02-2.34-.96-4.53-2.53-3.52-5.24Z"/>
      <path class="cls-37" d="M35.01,56.52c.6.27,1.23.53,1.67,1.03-.39-.18-3.1-1.62-2.54-.55l5.6,4.86c-1.37.78-11.84-8.09-4.73-5.34Z"/>
      <path class="cls-66" d="M60.03,74.19c-.96.99-2.66.25-3.83.73.74.61,4.06.56,3.4,1-.93.69-3.8-.38-4.34-1.05-1.02.76-.14,1.62-2.19.08-.08-.58,1.36-.39.84-1.11,1.97.12,4.21-.04,6.11.36Z"/>
      <path class="cls-21" d="M59.6,75.91c.14.94-1.54,1.55-1.8,2.59-1.7-.14-5.63-5.55-1.56-3.26-1.79-.15-.57.57.24,1.61,2.52,2.05-.17-.75-.24-1.61.85.24,2.51.75,3.36.67Z"/>
      <path class="cls-78" d="M59.66,72.51c2.06,1.02,3.11.45,5.22.68-1.58,1.24-7.19,1.56-7.91.46,4.27-.1,1.39-.11,2.69-1.14Z"/>
      <path class="cls-15" d="M19.89,46.89c.83-.23.16.39.33.82.68.6.79,2.14.98,2.89.07.03,1.11-1.06,1.09.22-2.24,3.12-2.67-2.64-2.41-3.93Z"/>
      <path class="cls-153" d="M70.41,59.17c1.82.65,4.55,5,4.31,6.6-2.09-3.65-4.96-7.25-8.35-9.84,1.56,0,3.27,1.91,4.04,3.24Z"/>
      <path class="cls-19" d="M39.43,59.11c1.59.91,2.17.66,1.48,2.06-.9-.53-6.57-3.93-1.48-2.06Z"/>
      <path class="cls-66" d="M53.64,73.74c-.12-.02-.35,0-.61-.05l.61.05Z"/>
      <path class="cls-17" d="M74.18,69.64l.19-.09c-.04.08-.18.08-.19.09Z"/>
      <path class="cls-17" d="M73.9,70.01l.19-.09c-.05.07-.17.08-.19.09Z"/>
      <path class="cls-66" d="M55.12,76.26s-.06-.16-.09-.19l.09.19Z"/>
      <path class="cls-95" d="M44.21,62.91c.37.29.15.68-.66,1.17,1.44.33,2.45.46.65,1.63-2.54-.67-5.24-.59-7.56.71-1.61.45-1.38-2.05.41-2.18,1.64-.36,4.43-.53,6.31-.6,1-.58-.64-1.42.86-.74Z"/>
      <path class="cls-74" d="M55.19,70.06c1.69.55,1.04,2.76,3.37,1.86,1.65.58.43,1.02,1.58,1.39.59.98-3.83.55-4.22.58,1.57-1.24.25-.7-.41-1.22-1.13-2.17-4.8-3.94-6.59-6.14,1.52-.04,5.31,6.11,6.28,3.53Z"/>
      <path class="cls-93" d="M32.92,64.54c-1.56-1.04.42-1.33-1.88-2.01-3.13,1.42.25-2.53,1.36-2.21.88,1.11-2.24,1.68.71,1.8.85.06-.69.39-.25,1.01.37.41,3.92.63,4.68.64.75.93-2.23.91-2.02,2.28.09-.92-.58-.28-1.72-.89-.31-.87.72-.62,1.05-.08.55-.64-1.51-1.42-1.94-.53Z"/>
      <path class="cls-141" d="M61.6,66.78c1.36,2.59-7.11-.48-9.56-.28-1.41-2.09,7.21,1.08,9.56.28Z"/>
      <path class="cls-6" d="M52.04,66.5c3.12.08,14.95.38,6.14,3.48.78-.87,2.25-1.34,3.18-2.03-.41-.17-9.59-.49-9.32-1.45Z"/>
      <path class="cls-91" d="M44.21,62.91c.46.21,2.54.92,2.61,1.04-.16.89-.61,1.46-1.54.88-2.04-.66-2.83,0-1.06-1.92Z"/>
      <path class="cls-154" d="M40.04,67.89c3.59,1.44-2.58-1.24-.47,1.4-2.95-.83-2.53-3.03.47-1.4Z"/>
      <path class="cls-102" d="M42.11,63.6c.99.91-3.81-.02-4.81.86.42-1.44,3.36-.5,4.81-.86Z"/>
      <path class="cls-10" d="M32.92,64.54c.1-1.82,3.51.24,2.08.79-.57.22-.72-1.06-1.2-.18-.62-.3-.42-.18-.88-.61Z"/>
      <path class="cls-105" d="M38.55,67.23c3.32,1.27-1.75-.79-.85,1.12-2.81-1.59-1.34-1.77.85-1.12Z"/>
      <path class="cls-152" d="M22.61,54.04c-.03.19-.3.41-.47.46-1.49-.63.62-2.04.47-.46Z"/>
      <path class="cls-122" d="M22.33,54.41l.23-.23c-.05.14-.12.16-.23.23Z"/>
      <path class="cls-105" d="M36.97,66.38c-.08-.02-.26.07-.33.05.11-.12.48-.29.33-.05Z"/>
      <path class="cls-14" d="M34.95,59c6.65,4.14.23.82-2.56-1.18.13-.89,1.67.77,2.56,1.18Z"/>
      <path class="cls-73" d="M21.26,52.03c1.07-.07.08,1.5-.21,1.57-.74.18-.53-1.51.21-1.57Z"/>
      <path class="cls-14" d="M32.11,57.26l-.09-.19c.07.04.08.18.09.19Z"/>
      <path class="cls-143" d="M70.88,67.43c1.59-1.64,2.38-1.09.98.8,1.01-.65,2.47-1.83,1.26.43.22.52-.91,1.87-1.45,1.53.71-1.99.7-2.11-.67-.2-2.23,1.21-.79-.33-.11-1.68-.96.66-.92-1.22,0-.88Z"/>
      <path class="cls-111" d="M70.27,68.31c2.38-1.59-.42,2.48-.93,2.73-2.12-.57.12-2.03.93-2.73Z"/>
      <path class="cls-111" d="M71.66,70.18c-1.72.86-.48-2.25.82-1.75.48.37-.66,1.35-.82,1.75Z"/>
      <path class="cls-125" d="M69.1,69.47c-.3.49-.48.69-.29,1.31-2.1-.48-1.43-2.16.29-1.31Z"/>
      <path class="cls-17" d="M74.09,68.98c.17-.42.78-1.97.1-1.68.99-1.27.42,1.19-.1,1.68Z"/>
      <path class="cls-110" d="M66.4,67.78l2.01-.41c-.41.81-1.19.25-2.01.41Z"/>
      <path class="cls-17" d="M73.77,69.49l.19-.09c-.04.08-.18.08-.19.09Z"/>
      <path class="cls-24" d="M57.94,70.68c.26-.6,2.77-1.84,3.13-1.43.58,2.81-4.1,3.14-3.13,1.43Z"/>
      <path class="cls-70" d="M58.54,71.66c.96,1.44-2.56.37-3.08-.11.69-.02.94-.54.52-1.07,2.23.65,1.35-.56,2.56,1.18Z"/>
      <path class="cls-26" d="M65.64,67.66c-.2.22-3.53,1.49-3.44.15.06-.86,4.33-1.1,3.44-.15Z"/>
      <path class="cls-48" d="M27.5,63.35c2.21,1.39,8.47,5.53,1.03,4.36-.29-.18-1.95-4.28-1.03-4.36Z"/>
      <path class="cls-128" d="M56.24,75.24c.58.3,2.73,3.48,1,2.59-1.22-.63-3.99-4.13-1-2.59Z"/>
    </g>
    <path class="cls-2" d="M75.44,40.62c.17.45.15.92.65.38-.83,1.05,1.02,6.14.81,6.82-.49-.99-2.11-.96-2.69-2.17-.79,1.99-1.94,3.04-1.62.39-.18-.53-1.29-1.24-.85-1.84,2.68-.23,2.61-1.38,3.7-3.58Z"/>
    <path class="cls-86" d="M75.44,40.62c-.88,3.32-.78,3.76-4.17,3.57-.04.12,4.53-4.15,4.17-3.57Z"/>
    <path class="cls-139" d="M75.55,46.73c-2.52,2.51-2.59.7-1.48-1.59.11-.07,1.32,1.44,1.48,1.59Z"/>
    <g>
      <path class="cls-127" d="M57.83,25.46c.9-.35.85.84.19,1.33,1.02,3.76-5.21,4.56-7.67,6.26-1.4.67-2.78-1.69-3.74-.33.29.83.29,2.42-.43.85-.3-3.97,8.45-5.6,11.66-8.11Z"/>
      <path class="cls-81" d="M60.61,20.49c1.23-.2,2.5,3.55,1.86,4.56-1.29.68-3.67,1.87-2.21,3.73.23,4.17,5.43,10.9-1.69,10.61-1.14.04-1-.48.42-1.57-1.07-.5-.08-1.67.71-1.29,3.12.86-1.11-6.83-1.44-9.34.68-3.15,5.2-1.47,2.36-6.7Z"/>
      <path class="cls-49" d="M58.99,26.17c-1.21-.96-.64-3.04-1.85-3.74,1.94-2.02,5.4-2.56,4.45,1.36,1.03,1.28-1.61,1.05-2.6,2.38Z"/>
      <path class="cls-22" d="M63.51,38.6c-1.63,1.38-2.97-9.25-3.85-10.01.17-5.28,3.04,8.25,3.85,10.01Z"/>
      <path class="cls-54" d="M45.53,31.89c1.64,2.25.89,6.58-1.55,2.75-.13-.95.03-8.18,1.55-2.75Z"/>
      <path class="cls-47" d="M51.95,46.53c2.77,2.65-2.38,3.49-3.77,4.03-.16-.25-2.97-5.1-1.64-4.61,1.52-1.81,1.04,4.27,2.22,4.02.48-1.03,1.87-.61,2.66-1.26-.44-.75.13-1.7.52-2.18Z"/>
      <path class="cls-145" d="M57.15,22.43l1.14.31c-.69,1.41,1.66,3.14-.05,4.27-2.26.7-.08-.44,0-.99-.5-.93-1.58-2.54-1.1-3.59Z"/>
      <path class="cls-12" d="M45.86,31.85c-.07.31.69,2.97.87,1.96.11-.61-.92-1.18.25-1.58-.46,1.72,1.66,4.49,1.18,6.04-.91-.82-2.11-3.26-2.34-4.01,1.5,2.25-.83-2.5.04-2.4Z"/>
      <path class="cls-135" d="M63.74,38.84c-2.8,1.99-.35-.04-1.26.04.09-.86.93.39,1.03-.28,0,.02.2.16.23.23Z"/>
      <path class="cls-13" d="M57.25,29.94c-.64,1.93-1.41,4.4-2.64,5.96.14,3.97-2.72.28-3.81-.95-.65,4.03-2.09-.81-2.36-2.34,1.64,1.52,8.15-4.08,8.82-2.67Z"/>
      <path class="cls-106" d="M58.29,26.87c.75.42,3.9,11.24,1.22,8.82-1.59-1.85-3.31-6.08-1.22-8.82Z"/>
      <path class="cls-34" d="M48.61,32.47c.38,1.3,1.35,3.53,1.16,4.17.97,5.8-5.74-6.41-1.16-4.17Z"/>
      <path class="cls-89" d="M47.3,32.18l-.37.18c.02-.2.22-.18.37-.18Z"/>
      <path class="cls-67" d="M59.32,35.32c1.68,2.2-2.41,1.07-1.6,4.13-.83.41-3.7,2.64-4.39,2.13-.31-1.33-.22-1.16-1.17-1.2-.74-.49-1.63-3.19-1.29-4.02.06-2.16,2.51,1.17,2.98,1.32.21-1.98,3.87-4,5.47-2.35Z"/>
      <path class="cls-58" d="M60.64,34.2c1.59,2.48.37,4.52-1.13,1.49.84.73,1.1-1.01,1.13-1.49Z"/>
      <path class="cls-42" d="M58.52,37.23c2.06.58-.78,1.75-.66,1.96.04.07,1.02-.46,1.26.43-.31,1.06-1.92.43-1.4-.47-.45-1.48-1.37-2.05.8-1.91Z"/>
      <path class="cls-12" d="M43.98,34.64c.41,1.03.41.63.44-.16-.09.62,1.61,1.74,1.74,1.52-.06-.71.45-.64.33-.04.17.72-.58,1.42-.99.62-.27.11-.62.34-.42-.16-1.11-1.53-.13-.03-.84-.29-.07-.03-1.15-.9-1.06-.98.65-.55.86,1.63.8-.51Z"/>
      <path class="cls-99" d="M49.37,38.49c3.24,7.95.32,4.52,10.64.8-1.26,1.66-9.22,3.77-8.57,5.98-.84-.58-7.02-4.67-8.66-3.87-.17.19-1.27-1.59-1.9-1.74-.29-1.56,5.04,1.2,6.18,1.31.63.35,3.22,1.46,1.24.26.48-.33-.92-.6-1.59-2.06,0,0-.91.74-.91.74,1.56.98-1.11.13-1.65-.24,1.98-.57.02-.38-.51-.79.07.8.52.94-.61.27.2-1.2-.35-1.35-1.63-.47-1.54-.09-2.67-.19-.42-.86,2-.74,3.57-2.6,5.09-.62.96-2.2,2.53,2.35,3.01,3.15-.33-1.87-1.43-3.87-1.54-5.61,1.12.82,1.23,2.59,1.85,3.74Z"/>
      <path class="cls-89" d="M47.52,34.75c2.55,6.91,2.92,9.62-1.03,1.21-.13-.19-.62-1-.12-.82,4.73,9.66-1.72-7.85,1.15-.39Z"/>
      <path class="cls-59" d="M50.93,44.47c-1.52,1.77-5.34,1.76-7.2.63-.21-1.82,2.93.47,3.97.15,1.24-.11,2.3-1.56,3.22-.78Z"/>
      <path class="cls-40" d="M48.43,50.01c-.45-.81-.59-3.53.78-1.85,2.7-.14.78,1.92-.78,1.85Z"/>
      <path class="cls-27" d="M48.57,50.06c.06-.03.12-.06.19-.09-.06.02-.13.09-.19.09Z"/>
      <path class="cls-27" d="M51.44,45.26c.37.63.6,1.79.55,2.52-.83-.67-.46,1.41.15.91-2.28,1.86-4.15-3.33-3.71,1.31-.45.07-.87-.97-.39-.68-.05-1.57-1.84-2.57-.47-3.66,1.26-.07,3.31-1.96,3.87-.4Z"/>
      <path class="cls-147" d="M58.13,40.21c-1.25,1.17-8.2,3.55-5.83.21,1.13-1.68,1.15,1.02,1.28,1.06.54.22,4.79-3.98,4.56-1.26Z"/>
      <path class="cls-1" d="M50.69,35.98c.21.18,1.39,3.95,1.47,4.39-.23,1.79-1.44.21-1.58-.8-.17.57-.61.24-.93-.52-.59-.8.38-1.62-.24-2.5.06-.44.29.04.3.03.13-.21,1.4-1.27.98-.6Z"/>
      <path class="cls-121" d="M50.48,39.8c1.7,3.99,1.1,1.24,3.86,2.4-.51.26-3.21,1.93-3.51,1.62.2-.15-2.19-6.54-.36-4.01Z"/>
      <path class="cls-30" d="M59.32,35.32c-6.19.49-4.45-.24-2.07-5.38.02.33,1.79,4.73,2.07,5.38Z"/>
      <path class="cls-84" d="M52.09,35.98c-.66-.45-1.23.69-1.4,0-.79-2.71.37-1.2,1.4,0Z"/>
      <path class="cls-80" d="M50.48,39.8c-.28-.99-.39-2.05-.68-3.04.79.68,1.09,5.62,2.36,3.6.2.34-.65,2.4.23.7.83.84-.14,1.57-.89,1.72-.12-.1-.91-2.63-1.01-2.99Z"/>
      <path class="cls-13" d="M50.78,36.16l-.09-.19c.02.06.08.12.09.19Z"/>
    </g>
    <g>
      <path class="cls-150" d="M40.78,30.75c.12.36-.09.52-.42.32-1.36,1.13-.73,0-1.49-.52-.98,1.96-2.87-1.64-3.54-1.18-1.72,1.46-2.54-.32-.79-1.39-2.11-.6,8.87-7.43,8.81-7.58-1.87,3.1-3.39,6.73-2.57,10.35Z"/>
      <path class="cls-113" d="M37.08,31.99c.19-2.09,3.73-.67,2.82,1.27.83.64-3.03,2.69-1.21,2.24,1.06-.04,4.27-1.85,4.32-.49,0,0-5.5,1.81-5.5,1.81.42.59.26,1.24-.52,1-1.36-.71-1.08-.06.13.25.08.22.02.39-.19.47-6.44-1.04-3.29-3.5.15-6.56Z"/>
      <path class="cls-39" d="M18.16,46.92c-1.42,2.22-.08,5-.19,7.45,4.02,2.53,1.67,4.47-1.11,1.79-.94-.07,0,1.54-.95,1-1.16-1.32.24-4.47,1.21-5.31.27-3.03-3.81-6.62,1.05-4.94ZM17.26,47.63c.08-.23-.28-.35-.36-.12-.08.23.28.35.36.12Z"/>
      <path class="cls-7" d="M26.74,28.96c-.34,1.68-.12,6.88-2.18,7.36-4.7.56,3.18-11.47,2.18-7.36Z"/>
      <path class="cls-25" d="M20.22,36.25c3.06-1.1-3.83,7.67.7,1.86,2.04-.98-.32,3.26-.96,3.04-3.14,6.54-3.43-7.78.26-4.9Z"/>
      <path class="cls-98" d="M32.08,34.81c.03,2.98,2.14,2.68,4.24,1.75-2.34,2.04-5.8.8-8.68,1.26-1.62-.34,1.39-1.18.24-1.12-1.39-.22-.77-1.83.28-1.82,1.05-.31,1.41.71,2.19-.04.52-.29,2.03-.69,1.73-.04Z"/>
      <path class="cls-65" d="M27.8,42.4c-1.35-.31-2.37-2.44-2.76-3.68,5.96-1.34,8.12-1.36,2.76,3.68Z"/>
      <path class="cls-52" d="M33.5,29.69c.57.62-.12,2.55-.8,1.03-.83-2.38.43,5.8-2.35,4.13.86-4.98-1.39-3.89,3.58-7.35.33.76,1.9-.63,1.4-.92,1.64.08-1.46,2.07-1.83,3.12Z"/>
      <path class="cls-88" d="M27.99,22.06c3.41.27.53,10.04.17,12.83-1.69.39,1.11-5.22.25-7.03-.29-.63-.9,1.39-1.67,1.09.01-.45.23-1.21-.37-.75.66-.75-1.29-2-.35-2.13,1.71,3.23,1.13-1.32,2.61-1.31.92-.65-.65-1.83-.64-2.71Z"/>
      <path class="cls-43" d="M37,39.13c.79,1.25-2.95.33-2.65-.56-1.52.93-5.64.98-3.56,2.75,6.62.3-1.3,1.15-3.01,1.08.33-.45,3.28-4.01,3.14-4.23-1.51,0-6.56-.07-5.28,1.79-11.65,12.69-1.33-8.63,11.34-.83Z"/>
      <path class="cls-136" d="M28.63,24.76c-1.07,1.7-1.41,4.45-2.95,1.34-.66-2.71,2.27-5.65,2.95-1.34Z"/>
      <path class="cls-130" d="M17.65,45.66c.06,2.92-2.45-1.21-1.92,2.45-1.54,2.93-2.32-6.03.97-5.37.2.22,1.37,2.51.95,2.92Z"/>
      <path class="cls-148" d="M23.57,38.32c2.84-2.05,1.37-.7,1.09.91-.58,1.57-6,4.86-2.94,5.01-7.59,6.36.43-3.84,1.85-5.92Z"/>
      <path class="cls-133" d="M16.39,46.64c-1.33.39,2.01,4.1.72,5.23-.38-.23-.4-.19-.05.14-.04,1.4-.16.6-.45.98-.19.25-.38,1.13-.87.6.03-.45.54-2.9.29-3.17-.54-.6-.67,2.03-1.3-1.69,1.36.47.14-4.41,1.64-2.09Z"/>
      <path class="cls-20" d="M25.1,29.65c-.33,2.02-1.98,4.2-1.76,6.1-.52.46-.91-.46-.56-.66-2.02-2.26.65-4.06,2.31-5.45Z"/>
      <path class="cls-148" d="M25.66,39.96c3.44,2.47.28,4.02-1.69,2.04.23-.89.31-2.46,1.69-2.04Z"/>
      <path class="cls-114" d="M22.7,34.91c.22.25-.06.41-.27.5-1.16-.75-1.88.78-3,.89-1.37-.71,3.85-6.65,3.27-1.38Z"/>
      <path class="cls-100" d="M43.34,20.4c-.24,2.08-3.65,6.34-1.96,10.86-2.77-2.51-.26-8.25,1.96-10.86Z"/>
      <path class="cls-57" d="M16.18,42.67c.46.93-.02.41-.86.96-.65.6-.33,1.85-.92,1.55-.12-2.79-.45-9.2,1.79-2.51Z"/>
      <path class="cls-96" d="M37.1,39.32c1.58.4,4.21,3.53,4.5,5.57-1.79-1.87-5.29-3.11-9.23-2.66,1.92-2.39,9.24,1.74,4.44-2.19-.02-.14.05-1,.28-.73Z"/>
      <path class="cls-75" d="M24.16,41.63c.22,1,.97.47,1.11,1.31-1.55,0-3.08,1.72-4.44,1.15,0,0,3.32-2.46,3.32-2.46Z"/>
      <path class="cls-109" d="M40.48,43.58c.42,1.13-7.87-1.07-10.05-.44,4.73.01,5.59-1.57,10.05.44Z"/>
      <path class="cls-33" d="M18.08,43.94c.41-.17.72.49.37.75.94.52-.5,2.54-.8.98-.72-.87-.47-2.6-1.39-2.81.3-.25,1-.9,1.08-1.81.67.16.2,2.63.73,2.9Z"/>
      <path class="cls-149" d="M40.48,43.58c-2.42-.84-5.01-.94-7.51-1.3-.23-1.13,6.81.27,7.51,1.3Z"/>
      <path class="cls-23" d="M41.38,31.26c-.3.98-.84,2.26-1.92,2.46.19-.87.43-4.07,1.92-2.46Z"/>
      <path class="cls-118" d="M27.99,22.06c.43.24,1.67,2.34,1.29,2.62-.21-.06-.6-.28-.65.09-.49-.1-2.16-3.21-.64-2.71Z"/>
      <path class="cls-50" d="M18.13,42.86c.65.18.07,1.58-.54.92-.07-.48-.38-2.66-.09-3.28-.94-.2.11-1.76.23-2.44-.11,1.6.35,3.24.4,4.81Z"/>
      <path class="cls-76" d="M14.42,39.58c-.43,1.16,1.13,2.53-.11,3.08,0-.53-.44-2.8.11-3.08Z"/>
      <path class="cls-55" d="M43.98,34.64c.02,1.46,1.34.49,1.11,1.78-1.88.3-3.68,2.01-5.66,1.98.52.13,2.64,1.12,1.07.99-1.52.59-8.91-2.28-3.4-1,0,0-2.07-.78-2.07-.78.87.23.89-.53.96-.53.33-.03,2.34,1.46,1.08-.41,2.2-.73,10.13-3.25,1.64-1.16.59-.55,4.8-1.26,4.99-1.44.9-4.07.38-3.88.28.58Z"/>
      <path class="cls-150" d="M33.7,27.73c.92.13-.33.56-.33.98-.11-.4-.1-.79.33-.98Z"/>
      <path class="cls-50" d="M17.83,37.78l.33-.98c-.13.31-.22.66-.33.98Z"/>
      <path class="cls-43" d="M32.97,42.28c-.15.16-.31.01-.47,0,.14-.16.31-.04.47,0Z"/>
      <path class="cls-43" d="M33.58,42.33c-.09,0-.2.04-.47,0h.47Z"/>
      <path class="cls-114" d="M18.21,36.66c.12-.26.2-.52.52-.6-.14.23-.25.49-.52.6Z"/>
      <path class="cls-130" d="M14.44,45.04s-.09-.12-.09-.19l.09.19Z"/>
      <path class="cls-115" d="M35.32,29.37c.36.23-.27,1.64-.31,1.92,1.5-1.4,1.09.04,2.07.7.03,1.34-2.25,1.97-2.85,3.08-.21.31.36.96-.48.77,1.18-1.08-.69.33-.73.77-.23.42.96.1.81.82-3.56-.01.6-3.22-.05-5.12-1.07-1.59-.33-3.07,1.54-2.94Z"/>
      <path class="cls-72" d="M35.32,29.37c.87-1.69.97,1.29,3.07,1.51.83-.74-2.03-6.53.42-5.62.67.25-.84,1.17-.82,1.28.05.26,1.69-.47,1.49.2-1.19-.26-1.38,2.65,0,1.86-.88.88-.8,2.21.07.72.2-.18.43.66.39.68-.1.05-.76-.26-.89.32,1.04.67.06,1.48,1.3.75-1.83,1.39-1.52,1.47-1.66.07-.19-.05-.75.86-.65.09-.71.15-.96,1.22-1.74.63-.03-1.98-1.09-.03-1.92.3.35-.64.63-2.26.95-2.79Z"/>
      <path class="cls-72" d="M39.72,30.4c.04.14.31.4.14.51-.04-.14-.31-.39-.14-.51Z"/>
      <path class="cls-68" d="M34.77,37.91c.65.09,3.86,1.47,2.61,1.51-2.37-1.88-8.18-1.82-11.15-1.13,1.07-1.39,6.44-.73,8.54-.38Z"/>
      <path class="cls-56" d="M40.5,39.38c1.4.81,4.68,8.49.86,4.29-.86-1.61-3.47-2.99-3.76-4.49.29-.22,1.21-.21,1.54.05-1.27-1.27.7-.17,1.35.15Z"/>
      <path class="cls-31" d="M40.78,39.47c3.12.77,5.11,11.54-.62,2.75.48.08,2.55,3.17,2.9,2.46.06-.49-1.84-2.75-1.18-3.36-.07-.6-1.82-2.06-1.1-1.85Z"/>
      <path class="cls-12" d="M43.02,34.94c.05.08.04.11-.05.14,0,0,.05-.14.05-.14Z"/>
      <path class="cls-46" d="M19.29,44.5c.46.75-1.15,3.24-2.2,2.37-.04-.73-.28-2.02.45-.63l.12-.58c1.19,1.29.3-1.92,1.64-1.16Z"/>
      <path class="cls-117" d="M17.11,51.87s-.05.09-.05.14c-1.32.2-.17-2.17.05-.14Z"/>
      <path class="cls-133" d="M16.95,46.83l-.42-.14c.13.06.29.08.42.14Z"/>
      <path class="cls-11" d="M22.74,35.23c.32.54,1.8,1.09,2.47,1.35,1.48-.09.43,1.9-.48,1.98.08-.22.79-.94.31-1.14l-1.39,2.02c-.09-.21.68-1.64-.09-1.12-.24-.02.26-.82.24-.78-.8,1.6-1.51.83-1.45-.59-.93-.5-1.9-.87-2.93-.65,1.42-.83,1.6-1.98,3.32-1.06Z"/>
      <path class="cls-83" d="M27.6,35.16c-.43,2.97,1,2.45-2.91,3.53,1.93-1.96.21-2.01-.13-2.38,2.11-.49,2.76-3.44,3.72-5.69.86.07-.61,3.3-.68,4.54Z"/>
      <path class="cls-85" d="M28.1,27.7c.91.43-.24,1.34-.86,1.64-1,1.4-.1,8.06-2.68,6.98,2.27-1.05,1.04-7.39,3.54-8.62Z"/>
      <path class="cls-92" d="M20.22,36.25c3.82-.86,1.36,3.75,3.91.86-.13.6-.57,1.04-.71,1.63-2.97,4.42.89-3.34-2.43,2.19-.25.59-1.45,1.6-1.31.6.09-.21,2.98-3.96,1.4-3.16-.55.31-1.47,2.83-2,1.88-.49-.77,3.3-4.39,1.13-3.98Z"/>
      <path class="cls-108" d="M19.68,41.52c.64.7,2.28-3,2.58-3.02,1.76.66-2.21,5.03-2.97,6-2.24.75-.85-2.42.39-2.98Z"/>
      <path class="cls-108" d="M19.73,41.38l.23-.23c-.06.1-.09.22-.23.23Z"/>
      <path class="cls-107" d="M33.45,31.23c1.39.64.08,5.25-.86,4.38-1.38-1.12-.78-8.58.86-4.38Z"/>
      <path class="cls-52" d="M32.59,35.61c-.06.4.11,2.01-.47.47-.11.05.09.72-.38.65.56-1.09-.57-.88-.53-1.19.06-.56.94.67.86-.72,0,.05.37.15.51.8Z"/>
      <path class="cls-5" d="M27.64,36.42c1.51-.6.69,1.47-.24.7-.03-.34-.11-.45.24-.7Z"/>
      <path class="cls-51" d="M28.1,27.7c1.88-2.25-.69,9.15-2.2,6.96.02-.33.97-5.28,1.1-5.53.04-.09,1.54-.67,1.1-1.43Z"/>
      <path class="cls-136" d="M28.67,24.63l.19-.09s-.15.05-.19.09Z"/>
      <path class="cls-55" d="M37.1,39.32c-.13-.02-.15-.07-.09-.19.05.03.07.13.09.19Z"/>
      <path class="cls-11" d="M23.19,38.97c.06-.1.09-.22.23-.23-.05.11-.09.22-.23.23Z"/>
      <path class="cls-11" d="M22.79,35.1c-.03-.06-.08-.12-.09-.19l.09.19Z"/>
      <path class="cls-55" d="M37.47,39.6s-.06-.13-.09-.19c.13.02.15.07.09.19Z"/>
      <path class="cls-18" d="M46.53,36.75c-.07.93-.66.59.32,1.82-1.3-1.37-.61-.36-.89-.14-1.31-1.74-.8.55-2.05-.56-1.27-2.63,3.46.87,1.41-1.22.03-1.29.25-.05.54.02.34.08.21-.45.23-.46.32-.15.33.58.4-.26.26.54.07.38.04.79Z"/>
      <path class="cls-55" d="M40.46,38.59c-.19.17-.41,0-.61-.05.19-.17.41,0,.61.05Z"/>
      <path class="cls-55" d="M40.87,39.66l-.09-.19c.07.04.08.18.09.19Z"/>
      <path class="cls-55" d="M41.24,39.94l-.09-.19c.07.06.08.18.09.19Z"/>
      <path class="cls-109" d="M47.71,45.25c-.28.9-4.22-1.47-3.78-.35.19.26,2.29.51,2.61,1.04-.26.83-1.91-.39-2.24-.29-.2,2.03-1.8-.3-2.7-.76-1.76-2.54,1.25.55,1.86.47.45-.18-.45-2.31-.62-2.78.7.06-.28-.83-.07-1.19,1.12,2.44,2.28,3.31,4.93,3.85Z"/>
      <path class="cls-85" d="M26.43,34.93c.05-.11.09-.22.23-.23-.05.11-.09.23-.23.23Z"/>
    </g>
  </g>
</svg>