<svg width="25" height="25" viewBox="0 0 25 25" fill="none" xmlns="http://www.w3.org/2000/svg">
<path d="M12.5 20.5L4.9573 13.0361C3.01423 11.0882 3.01423 7.91279 4.9573 5.96497C5.4173 5.50062 5.96505 5.13204 6.5688 4.88057C7.17255 4.6291 7.82029 4.49974 8.47449 4.50001C9.80266 4.50001 11.0489 5.01561 11.9917 5.96497L12.5 6.47238L13.0083 5.96497C13.4679 5.50004 14.0155 5.13106 14.6194 4.87955C15.2232 4.62804 15.8712 4.49902 16.5255 4.50001C17.8537 4.50001 19.0999 5.01561 20.0427 5.96497C21.9858 7.91279 21.9858 11.0882 20.0427 13.0361L12.5 20.5Z" fill="#FE5493"/>
<path d="M12.5 20.5L4.9573 13.0361C3.01423 11.0882 3.01423 7.91279 4.9573 5.96497C5.4173 5.50062 5.96505 5.13204 6.5688 4.88057C7.17255 4.6291 7.82029 4.49974 8.47449 4.50001C9.80266 4.50001 11.0489 5.01561 11.9917 5.96497L12.5 6.47238L13.0083 5.96497C13.4679 5.50004 14.0155 5.13106 14.6194 4.87955C15.2232 4.62804 15.8712 4.49902 16.5255 4.50001C17.8537 4.50001 19.0999 5.01561 20.0427 5.96497C21.9858 7.91279 21.9858 11.0882 20.0427 13.0361L12.5 20.5Z" fill="black" fill-opacity="0.2"/>
</svg>
