<svg width="25" height="25" viewBox="0 0 25 25" fill="none" xmlns="http://www.w3.org/2000/svg">
<path d="M5.31128 6.31809L5.31129 6.31809L5.31251 6.31686C5.72594 5.89952 6.21829 5.56819 6.76105 5.34213C7.3038 5.11607 7.88614 4.99977 8.47429 5.00001H8.47449C9.66973 5.00001 10.7881 5.46265 11.6369 6.3173L11.6384 6.31883L12.1468 6.82625L12.5 7.17887L12.8532 6.82625L13.3616 6.31883L13.3616 6.31884L13.3639 6.31646C13.7768 5.89872 14.269 5.56715 14.8116 5.34111C15.3543 5.11508 15.9367 4.99912 16.5248 5.00001H16.5255C17.7207 5.00001 18.8392 5.46265 19.6879 6.3173L19.6887 6.31809C21.4367 8.07039 21.4371 10.9291 19.6898 12.6819C19.6894 12.6822 19.6891 12.6826 19.6887 12.6829L12.5 19.7966L5.31128 12.6829C5.31093 12.6826 5.31057 12.6822 5.31021 12.6819C3.56291 10.9291 3.56326 8.07039 5.31128 6.31809Z" stroke="#67666E"/>
</svg>
