<svg width="573" height="109" viewBox="0 0 573 109" fill="none" xmlns="http://www.w3.org/2000/svg">
<path d="M92.1396 39.0342C92.1396 39.9101 91.9751 40.8134 91.646 41.7441C91.3718 42.6748 91.0153 43.5233 90.5766 44.2898C89.8636 44.3993 89.2054 44.6456 88.6021 45.0289C88.0537 45.4121 87.6149 45.6585 87.2859 45.768C86.5729 45.8774 85.7228 45.9322 84.7356 45.9322C83.8032 45.8774 82.9531 45.8774 82.1853 45.9322C80.7045 46.0417 79.2236 46.2059 77.7428 46.4249C76.3168 46.6439 74.8909 46.9176 73.4649 47.2461C73.3552 47.2461 73.2455 47.2735 73.1358 47.3282C73.0262 47.3282 72.9713 47.383 72.9713 47.4925C72.9713 47.602 72.9987 47.7114 73.0536 47.8209C73.1084 47.9304 73.1358 48.0399 73.1358 48.1494C73.1358 48.3137 72.9713 48.3958 72.6422 48.3958C72.0389 48.3958 71.6276 48.2042 71.4082 47.8209C69.6532 48.2589 67.8981 48.7243 66.1431 49.217C64.3881 49.6549 62.633 50.0929 60.878 50.5309C60.0005 50.6951 59.1229 50.8594 58.2454 51.0236C57.4227 51.1878 56.5726 51.4068 55.6951 51.6806C55.2564 51.7901 54.8176 51.9817 54.3788 52.2554L53.0626 53.0766C52.7883 53.0218 52.5415 52.9945 52.3222 52.9945C52.1028 52.9397 51.8834 52.9123 51.664 52.9123C50.7316 52.9123 49.7444 53.104 48.7024 53.4872C47.6603 53.8157 46.7554 54.281 45.9876 54.8832H45.4117C44.8632 54.8832 44.4793 54.8011 44.2599 54.6369C43.7663 54.5821 43.4647 54.7464 43.355 55.1296C43.2453 55.4581 43.0533 55.7592 42.7791 56.0329C40.9144 56.1971 39.0771 56.5256 37.2672 57.0183C35.4573 57.511 33.6748 58.0585 31.9198 58.6607C30.1648 59.2082 28.3823 59.783 26.5724 60.3852C24.8174 60.9327 23.0349 61.3707 21.225 61.6991C21.0056 62.7941 20.896 64.0532 20.896 65.4766C20.896 66.5716 20.9782 67.8307 21.1428 69.2541C21.3621 70.6775 21.8009 71.882 22.459 72.8674V73.0316C22.459 73.3054 22.3493 73.497 22.13 73.6065C21.9106 73.716 21.8009 73.9076 21.8009 74.1813C21.8009 75.6047 21.938 76.946 22.2122 78.2052C22.5413 79.4643 22.8704 80.6961 23.1994 81.9005C23.5285 83.105 23.8302 84.3094 24.1044 85.5138C24.4335 86.7182 24.598 87.95 24.598 89.2092C24.598 89.5377 24.5706 89.8388 24.5157 90.1125C24.5157 90.441 24.4883 90.7695 24.4335 91.0979C24.598 91.5907 24.8722 92.0013 25.2561 92.3297C25.64 92.6582 25.9691 93.0414 26.2433 93.4794C26.2982 93.7531 26.3256 93.9995 26.3256 94.2185V95.0397C26.3256 95.9704 26.2159 96.7916 25.9965 97.5033C25.7772 98.215 25.5029 98.8719 25.1739 99.4741C24.8448 100.131 24.4883 100.761 24.1044 101.363C23.7205 102.02 23.364 102.732 23.0349 103.498C22.4865 103.607 22.0477 103.662 21.7186 103.662C20.896 103.662 20.2104 103.443 19.6619 103.005C19.1683 102.567 18.7296 102.02 18.3457 101.363C17.9617 100.761 17.5778 100.131 17.1939 99.4741C16.8648 98.8172 16.4535 98.2697 15.9599 97.8317C16.0147 97.558 16.0422 97.3116 16.0422 97.0927C16.097 96.8737 16.1244 96.6273 16.1244 96.3536C16.1244 95.2587 15.9325 94.1911 15.5486 93.1509C15.2195 92.1107 14.8356 91.1253 14.3968 90.1946C14.342 88.3332 14.15 86.4992 13.8209 84.6926C13.4919 82.886 13.0257 81.1067 12.4224 79.3548C12.5321 78.6979 12.6144 78.0683 12.6692 77.4661C12.724 76.8091 12.7515 76.1796 12.7515 75.5773C12.7515 73.9897 12.6692 72.4021 12.5047 70.8144C12.3401 69.2268 12.3127 67.6391 12.4224 66.0515C12.2579 65.7777 12.0933 65.5588 11.9288 65.3945C11.7643 65.1755 11.6271 64.9292 11.5175 64.6554H11.1884C10.3657 64.6554 9.57046 64.7376 8.80263 64.9018C8.0348 65.0113 7.26697 65.066 6.49914 65.066C6.22491 65.066 5.97811 65.066 5.75873 65.066C5.53935 65.0113 2.16638 65.1755 1.89215 65.1208C1.28886 64.5186 0.822675 63.8342 0.493605 63.0678C0.164535 62.3014 0 61.5075 0 60.6863C0 59.4819 0.32907 58.387 0.98721 57.4016C2.35834 57.0731 6.82821 56.4709 8.14449 56.0329C9.51561 55.5402 10.8319 54.9653 12.0933 54.3084C12.2579 53.4872 12.3401 52.666 12.3401 51.8448C12.395 51.0236 12.6966 50.2572 13.2451 49.5454C13.0805 49.1075 12.8063 48.7243 12.4224 48.3958C12.0933 48.0126 11.9288 47.5746 11.9288 47.0819C11.9288 46.8081 11.9836 46.4523 12.0933 46.0143C12.6418 45.4121 13.0257 44.6456 13.2451 43.715C13.4645 42.7843 13.6564 41.7988 13.8209 40.7587C13.9855 39.7185 14.15 38.6783 14.3146 37.6381C14.5339 36.5979 14.8904 35.6673 15.384 34.8461C15.2743 34.4081 15.1921 33.9427 15.1372 33.45C15.0824 32.9026 15.055 32.4098 15.055 31.9719C15.055 31.3149 15.0824 30.658 15.1372 30.001C15.2469 29.2893 15.4115 28.6323 15.6308 28.0301C15.0275 27.3184 14.5339 26.4972 14.15 25.5665C13.7661 24.5811 13.5741 23.6231 13.5741 22.6924C13.5741 20.8857 14.4517 19.7361 16.2067 19.2433C16.1519 19.0244 16.097 18.8327 16.0422 18.6685C16.0422 18.5043 16.0422 18.34 16.0422 18.1758C16.0422 17.6831 16.1793 17.2177 16.4535 16.7798C16.7277 16.3418 16.9471 15.9038 17.1116 15.4658C16.8374 14.7541 16.7003 14.1519 16.7003 13.6592C16.7003 13.2212 16.7826 12.838 16.9471 12.5095C17.1116 12.1263 17.2488 11.7157 17.3584 11.2777C17.523 10.7303 17.6327 10.2376 17.6875 9.7996C17.7972 9.36163 17.9617 8.9784 18.1811 8.64992C18.4005 8.32145 18.6747 8.07509 19.0038 7.91085C19.3877 7.74661 19.9636 7.66449 20.7314 7.66449C21.938 7.66449 23.0898 8.04771 24.1867 8.81416C25.3384 9.52587 26.2159 10.3471 26.8192 11.2777C27.4225 11.223 27.9435 11.1135 28.3823 10.9493C28.8759 10.7303 29.3147 10.5387 29.6986 10.3744C30.1373 10.2102 30.5761 10.0733 31.0149 9.96384C31.5085 9.7996 32.0843 9.74485 32.7425 9.7996C32.907 9.41637 33.1812 9.17001 33.5652 9.06052C34.0039 8.89628 34.4427 8.78679 34.8814 8.73204C35.3202 8.62255 35.7315 8.48569 36.1154 8.32145C36.4994 8.15721 36.7462 7.8561 36.8559 7.41813C37.0752 7.58237 37.322 7.66449 37.5963 7.66449C37.8705 7.66449 38.1447 7.63712 38.4189 7.58237C38.6932 7.47288 38.9948 7.41813 39.3239 7.41813C39.653 7.41813 39.9272 7.52762 40.1466 7.74661C41.5725 6.98016 43.0808 6.4327 44.6713 6.10422C46.3166 5.72099 47.9346 5.50201 49.5251 5.44726C53.3094 3.3669 57.2856 1.9435 61.4538 1.17705C65.6769 0.410598 69.9 0.0273732 74.1231 0.0273732C74.7263 0.0273732 75.3022 0.0273732 75.8507 0.0273732C76.454 -0.0273732 77.0298 0 77.5783 0.109493C78.1816 0.218985 78.8397 0.410598 79.5527 0.684329C80.3205 0.958061 81.0609 1.28654 81.7739 1.66976C82.5418 2.05299 83.2547 2.49096 83.9129 2.98368C84.571 3.42165 85.1195 3.83224 85.5582 4.21547C85.997 5.2009 86.2164 6.15897 86.2164 7.08965C86.2164 7.52762 86.189 7.96559 86.1341 8.40357C86.0793 8.78679 86.0518 9.19739 86.0518 9.63536C86.0518 10.2923 86.189 11.0314 86.4632 11.8526C86.2986 11.7978 86.0244 11.7705 85.6405 11.7705C85.1469 11.7705 84.7356 11.88 84.4065 12.0989C84.0774 12.3179 83.7758 12.5643 83.5015 12.838C83.2273 13.1118 82.9531 13.3581 82.6789 13.5771C82.4595 13.7961 82.2401 13.9056 82.0207 13.9056C81.582 13.9056 81.1981 13.8235 80.869 13.6592C80.5948 13.495 80.2931 13.3307 79.9641 13.1665C79.6898 12.9475 79.3882 12.7833 79.0591 12.6738C78.73 12.5095 78.3461 12.4548 77.9074 12.5095V12.1811C77.9074 11.5789 77.7154 11.1956 77.3315 11.0314C76.9476 10.8124 76.6459 10.5113 76.4265 10.1281C75.6039 10.0733 74.7812 9.96384 73.9585 9.7996C73.1907 9.63536 72.3954 9.55324 71.5728 9.55324C70.4759 9.55324 69.6258 9.93646 69.0225 10.7029C68.7482 10.5934 68.5014 10.4566 68.2821 10.2923C68.1175 10.1281 67.8707 10.0733 67.5416 10.1281H67.2948C64.3332 10.1281 61.4264 10.4566 58.5745 11.1135C55.7225 11.7157 52.898 12.4822 50.1009 13.4129C47.3038 14.2888 44.5067 15.2469 41.7096 16.287C38.9125 17.3272 36.1154 18.2305 33.3184 18.997C32.6602 19.8729 31.9746 20.5299 31.2617 20.9679C30.5487 21.3511 29.8357 21.6796 29.1227 21.9533C28.4646 22.227 27.8064 22.5008 27.1483 22.7745C26.4901 23.0482 25.9143 23.4862 25.4207 24.0884C24.9819 24.6906 24.6254 25.5392 24.3512 26.6341C24.1318 27.6743 24.077 29.1251 24.1867 30.9864C23.9124 31.3149 23.7479 31.6708 23.6931 32.054C23.6382 32.4372 23.5834 32.8204 23.5285 33.2037C23.4737 33.5321 23.3914 33.8606 23.2817 34.1891C23.172 34.5176 22.9801 34.8187 22.7058 35.0924C22.8155 35.6399 22.8978 36.1873 22.9526 36.7348C23.0075 37.2823 23.0349 37.8297 23.0349 38.3772C23.0349 40.6765 22.651 42.9211 21.8832 45.111C22.1574 45.549 22.2945 46.0417 22.2945 46.5891C22.2945 47.1914 22.2122 47.7388 22.0477 48.2315C21.8832 48.7243 21.8009 49.2717 21.8009 49.8739C21.8009 50.4761 21.9106 50.9689 22.13 51.3521C22.459 51.3521 22.651 51.4616 22.7058 51.6806H23.1994C24.1867 51.6806 25.0368 51.4342 25.7497 50.9415C26.4627 50.4488 27.2306 50.2024 28.0532 50.2024C28.2178 50.2024 28.4097 50.2572 28.6291 50.3666C28.8485 50.4761 29.0404 50.5309 29.205 50.5309C29.5889 50.5309 29.7534 50.394 29.6986 50.1203C29.6437 49.8466 29.7808 49.6549 30.1099 49.5454L33.0715 49.0527C34.9363 48.7243 36.6913 48.341 38.3367 47.9031C40.0369 47.4103 41.7096 46.6986 43.355 45.768C43.7389 45.9322 44.1777 46.0143 44.6713 46.0143C45.11 46.0143 45.5762 45.9596 46.0698 45.8501C46.5634 45.6858 47.0296 45.6037 47.4684 45.6037C47.8523 45.6037 48.1539 45.6585 48.3733 45.768C48.7024 45.549 49.1137 45.3847 49.6073 45.2752C50.1009 45.111 50.3752 44.7825 50.43 44.2898H50.5945C50.8139 44.2898 50.9785 44.3445 51.0881 44.454C51.1978 44.5635 51.3624 44.6183 51.5817 44.6183H51.9108C53.0626 44.0708 54.1046 43.6602 55.037 43.3865C56.5726 43.0033 58.218 42.6748 59.973 42.4011C61.7281 42.0726 63.2912 41.5251 64.6623 40.7587C66.2528 40.7587 67.7885 40.5123 69.2693 40.0196C70.8049 39.4721 72.3406 39.1984 73.8763 39.1984C74.5892 39.1984 75.2474 39.3079 75.8507 39.5269C76.3991 39.1436 77.0298 38.8699 77.7428 38.7057C78.5107 38.5414 79.1414 38.2403 79.635 37.8024C79.9641 37.8571 80.2931 37.9118 80.6222 37.9666C81.0061 37.9666 81.39 37.9666 81.7739 37.9666C83.4193 37.9666 84.9824 37.7476 86.4632 37.3096C87.9988 36.8169 89.5619 36.4611 91.1524 36.2421C91.5363 36.6801 91.7831 37.1454 91.8928 37.6381C92.0574 38.0761 92.1396 38.5414 92.1396 39.0342Z" fill="white"/>
<path d="M138.328 81.2436C138.163 82.01 137.807 82.6396 137.258 83.1323C136.765 83.5703 136.162 83.9262 135.449 84.1999C134.736 84.4736 133.995 84.6652 133.227 84.7747C132.514 84.8295 131.856 84.8568 131.253 84.8568C130.979 84.8568 130.704 84.8568 130.43 84.8568C130.211 84.8021 129.964 84.7747 129.69 84.7747C129.416 84.7747 129.278 84.9116 129.278 85.1853C129.278 85.4591 129.141 85.6507 128.867 85.7602C128.593 85.6507 128.319 85.5686 128.044 85.5138C127.77 85.4591 127.496 85.4317 127.222 85.4317C126.838 85.4317 126.454 85.4591 126.07 85.5138C125.741 85.5686 125.412 85.5959 125.083 85.5959C124.644 85.5959 124.315 85.5412 124.096 85.4317C123.931 85.3222 123.767 85.2127 123.602 85.1032C123.492 84.939 123.355 84.7747 123.191 84.6105C123.081 84.4463 122.889 84.3094 122.615 84.1999C122.231 84.0357 121.902 84.0083 121.628 84.1178C121.408 84.2273 121.052 84.063 120.558 83.6251C119.9 83.0776 119.324 82.4206 118.831 81.6542C118.392 80.833 117.953 79.9844 117.514 79.1085C117.075 78.2325 116.609 77.3566 116.116 76.4807C115.622 75.6047 115.046 74.8383 114.388 74.1813H113.73C112.743 74.1813 112.057 74.5919 111.673 75.4131C111.399 75.2489 111.125 75.0573 110.851 74.8383C110.576 74.5645 110.275 74.3456 109.946 74.1813C108.684 74.5645 107.368 74.893 105.997 75.1667C104.626 75.4405 103.255 75.5773 101.883 75.5773H100.732C100.403 75.5773 100.046 75.5226 99.6622 75.4131C99.1137 75.6321 98.6201 75.9058 98.1814 76.2343C97.7426 76.508 97.249 76.6449 96.7005 76.6449C96.3715 76.6449 95.9876 76.5354 95.5488 76.3164C95.2197 76.3164 95.0552 76.4533 95.0552 76.727C95.11 77.0007 94.9455 77.1376 94.5616 77.1376H93.8212C93.0534 77.1376 92.2855 77.165 91.5177 77.2197C90.8047 77.2745 90.0643 77.3018 89.2965 77.3018C88.2544 77.3018 87.1849 77.165 86.088 76.8913C85.8138 77.0555 85.5122 77.1376 85.1831 77.1376C84.9637 77.2471 84.7992 77.4387 84.6895 77.7124C84.5798 77.9314 84.4701 78.1504 84.3604 78.3694C84.2507 78.5336 84.0862 78.6979 83.8668 78.8621C83.7023 78.9716 83.4555 78.999 83.1264 78.9442C83.0167 79.6012 82.7425 80.1213 82.3037 80.5045C81.865 80.8877 81.6456 81.4626 81.6456 82.229C81.0423 82.5575 80.5487 82.9681 80.1648 83.4608C79.7809 83.9535 79.3969 84.4736 79.013 85.0211C78.6291 85.5686 78.2178 86.0886 77.779 86.5814C77.3951 87.0741 76.9015 87.4573 76.2982 87.731C76.024 88.0595 75.9417 88.5796 76.0514 89.2913C75.4481 89.784 74.7077 90.222 73.8302 90.6052C72.9527 90.9884 72.13 91.1801 71.3622 91.1801C69.7716 91.1801 68.6747 90.3315 68.0714 88.6344C68.0714 88.0869 68.1263 87.5121 68.236 86.9098C68.2908 86.2529 68.4005 85.6507 68.5651 85.1032C68.7296 84.501 68.9764 83.9809 69.3055 83.5429C69.6345 83.0502 70.1007 82.6944 70.704 82.4754C70.704 81.9827 70.5395 81.6542 70.2104 81.4899C69.8813 81.271 69.7442 80.9151 69.7991 80.4224C71.2799 79.7107 72.5687 78.78 73.6656 77.6303C74.7625 76.4807 75.7498 75.2762 76.6273 74.0171C77.5596 72.7032 78.492 71.3892 79.4244 70.0753C80.3567 68.7614 81.3988 67.5844 82.5505 66.5442V64.8197C84.1959 63.0678 85.2654 61.0969 85.759 58.9071C86.3623 58.7976 86.7462 58.5239 86.9107 58.0859C87.1301 57.6479 87.2398 57.1278 87.2398 56.5256C87.514 56.5256 87.6785 56.4161 87.7334 56.1971C87.8431 55.9234 88.0899 55.8413 88.4738 55.9508C88.9674 54.6369 89.5159 53.4324 90.1191 52.3375C90.7224 51.2426 91.3257 50.1477 91.929 49.0527C92.5323 47.9031 93.0534 46.726 93.4921 45.5216C93.9857 44.3172 94.3422 42.9759 94.5616 41.4977C95.3294 41.443 95.7408 41.0871 95.7956 40.4302C95.9053 39.7185 96.015 39.0889 96.1247 38.5414C96.9473 37.775 97.5506 36.8717 97.9346 35.8315C98.3733 34.7913 98.7572 33.7238 99.0863 32.6288C99.4154 31.4792 99.7719 30.3569 100.156 29.2619C100.595 28.1123 99.9638 25.2928 100.732 24.4169V24.1705C100.732 23.8968 100.622 23.7325 100.403 23.6778C100.183 23.5683 100.074 23.3767 100.074 23.103C100.128 23.0482 100.156 22.9935 100.156 22.9387C100.814 22.665 101.308 22.227 101.637 21.6248C101.966 20.9679 102.459 20.5025 103.117 20.2288C104.269 21.1595 106.518 23.5409 107.395 23.7599C108.273 23.9242 109.425 24.061 110.851 24.1705C111.564 24.937 111.947 25.8677 112.002 26.9626C112.112 28.0028 112.304 29.0429 112.578 30.0831C113.017 31.835 113.483 33.5595 113.977 35.2567C114.525 36.899 114.937 38.5962 115.211 40.3481C115.375 41.3882 115.677 42.3737 116.116 43.3044C116.554 44.2351 116.856 45.1931 117.021 46.1785C117.13 46.945 117.13 47.8209 117.021 48.8064C116.911 49.7371 117.021 50.5583 117.35 51.27L117.926 52.5839C118.2 53.1861 118.419 53.8157 118.584 54.4726C118.803 55.1296 118.995 55.7865 119.16 56.4435C119.598 58.0859 119.982 59.8651 120.311 61.7813C120.695 63.6426 121.271 65.3398 122.039 66.8727C122.313 67.4201 122.725 67.8034 123.273 68.0223C123.876 68.2413 124.534 68.4056 125.247 68.5151C125.96 68.5698 126.646 68.5972 127.304 68.5972C128.017 68.5424 128.62 68.5151 129.114 68.5151H129.937C130.266 68.5151 130.595 68.5698 130.924 68.6793C131.143 69.1173 131.253 69.5005 131.253 69.829C131.253 70.4859 131.034 71.006 130.595 71.3892C130.156 71.7725 129.937 72.2104 129.937 72.7032C129.937 72.9769 130.046 73.278 130.266 73.6065C130.046 73.5517 129.717 73.5244 129.278 73.5244C128.017 73.5244 126.783 73.7433 125.576 74.1813C126.015 75.112 126.591 75.9058 127.304 76.5628C128.072 77.165 128.867 77.7398 129.69 78.2873C130.238 77.8493 130.814 77.6303 131.417 77.6303C132.076 77.6303 132.679 77.7946 133.227 78.123C133.831 78.3968 134.461 78.5336 135.119 78.5336C135.613 78.5336 135.97 78.4515 136.189 78.2873C136.628 78.78 136.984 79.3001 137.258 79.8476C137.533 80.3403 137.889 80.8056 138.328 81.2436ZM112.578 68.1045C112.468 67.1738 112.277 66.5168 112.002 66.1336C111.783 65.6956 111.591 65.1755 111.426 64.5733C111.207 63.8069 111.043 62.9857 110.933 62.1097C110.878 61.2338 110.768 60.3852 110.604 59.564C110.22 57.7027 109.781 55.8413 109.287 53.9799C108.849 52.1185 108.273 50.3119 107.56 48.56C107.779 48.2315 107.889 47.9304 107.889 47.6567V47.4103C107.395 46.8629 107.039 46.2059 106.819 45.4395C106.6 44.6183 106.381 43.8245 106.161 43.058C105.997 42.2368 105.75 41.4977 105.421 40.8408C105.147 40.1291 104.681 39.5542 104.022 39.1163C103.858 39.4447 103.776 39.828 103.776 40.2659C103.776 40.6492 103.803 41.005 103.858 41.3335C103.968 41.662 104.022 42.0178 104.022 42.4011C103.474 42.6748 103.063 43.1128 102.788 43.715C102.569 44.2624 102.185 44.7004 101.637 45.0289C101.198 46.7808 100.567 48.4505 99.7444 50.0382C98.9218 51.5711 98.0443 53.104 97.1119 54.6369C96.2344 56.1698 95.3843 57.73 94.5616 59.3177C93.7389 60.8506 93.0808 62.4656 92.5872 64.1627C91.8742 64.6554 91.3806 65.285 91.1064 66.0515C90.887 66.8179 90.7773 67.5844 90.7773 68.3508C91.2709 68.6246 91.8193 68.7888 92.4226 68.8435C93.0808 68.8435 93.7115 68.8435 94.3148 68.8435C94.9181 68.8435 95.494 68.8983 96.0424 69.0078C96.5909 69.1173 97.0845 69.391 97.5232 69.829C98.2362 69.61 99.004 69.4731 99.8267 69.4184C100.704 69.3089 101.417 69.0625 101.966 68.6793C103.063 69.0625 104.242 69.2541 105.503 69.2541C106.161 69.2541 106.792 69.1994 107.395 69.0899C108.053 68.9804 108.684 68.8435 109.287 68.6793C109.781 68.7888 110.165 68.9804 110.439 69.2541C110.713 69.4731 111.125 69.5552 111.673 69.5005C111.947 69.2815 112.112 69.0625 112.167 68.8435C112.222 68.5698 112.359 68.3234 112.578 68.1045Z" fill="white"/>
<path d="M190.933 33.2858C190.823 33.9427 190.659 34.5176 190.439 35.0103C190.275 35.4483 190.248 36.0505 190.357 36.8169C189.809 36.8717 189.37 37.0633 189.041 37.3918C188.767 37.6655 188.52 37.994 188.301 38.3772C188.136 38.7604 187.944 39.171 187.725 39.609C187.56 39.9922 187.341 40.3481 187.066 40.6765C187.505 42.6474 187.752 44.6456 187.807 46.6713C187.862 48.6969 187.999 50.6951 188.218 52.666C188.492 55.1843 188.904 57.6753 189.452 60.1389C190.056 62.5477 190.357 65.0113 190.357 67.5296C190.357 68.2961 190.33 69.0078 190.275 69.6647C190.275 70.3217 190.275 71.006 190.275 71.7177C190.275 72.1557 190.275 72.621 190.275 73.1138C190.33 73.5517 190.357 73.9897 190.357 74.4277C190.357 76.0153 190.138 77.603 189.699 79.1906C189.315 80.7782 189.014 82.3659 188.794 83.9535C188.136 84.5557 187.56 85.2127 187.066 85.9244C186.628 86.6361 186.162 87.2931 185.668 87.8953C185.174 88.4975 184.598 89.0176 183.94 89.4555C183.282 89.9483 182.46 90.2767 181.472 90.441C181.308 90.9884 180.979 91.399 180.485 91.6728C180.046 91.9465 179.662 92.3297 179.333 92.8224H179.169C177.798 92.8224 176.619 92.6308 175.631 92.2476C174.644 91.8644 173.712 91.4264 172.834 90.9337C172.012 90.441 171.161 89.9209 170.284 89.3734C169.406 88.826 168.392 88.388 167.24 88.0595C165.704 86.8003 164.306 85.4317 163.044 83.9535C161.783 82.4206 160.357 81.052 158.766 79.8476C158.383 78.7526 157.862 77.8493 157.203 77.1376C156.6 76.4259 155.997 75.6047 155.394 74.674C155.119 74.2908 154.9 73.935 154.735 73.6065C154.626 73.278 154.461 72.8948 154.242 72.4568C154.077 72.0188 153.803 71.7177 153.419 71.5535C153.09 71.3892 152.788 71.1976 152.514 70.9786C152.075 69.2815 151.445 67.7212 150.622 66.2978C149.799 64.8744 148.84 63.5058 147.743 62.1919C147.414 62.7941 147.139 63.451 146.92 64.1627C146.755 64.8197 146.591 65.504 146.426 66.2157C146.262 66.8727 146.042 67.557 145.768 68.2687C145.549 68.9257 145.247 69.5279 144.863 70.0753V70.3217C144.863 70.5954 144.973 70.7597 145.192 70.8144C145.412 70.8692 145.521 71.0334 145.521 71.3071C145.521 71.3619 145.494 71.4166 145.439 71.4714C145.439 71.5261 145.439 71.5809 145.439 71.6356C145.165 71.8546 144.946 72.1283 144.781 72.4568C144.671 72.7853 144.397 72.9769 143.958 73.0316C144.013 73.3054 144.041 73.5791 144.041 73.8528V74.5919C144.041 76.1796 143.849 77.7672 143.465 79.3548C143.136 80.9425 142.971 82.5575 142.971 84.1999V85.2674C142.971 85.6507 142.999 86.0065 143.053 86.335C143.163 86.6635 143.328 86.992 143.547 87.3204C143.766 87.6489 146.18 89.5531 146.18 89.8268C146.18 90.21 146.015 90.5659 145.686 90.8944C146.07 91.1681 146.509 91.4692 147.002 91.7977C147.496 92.1262 147.935 92.482 148.318 92.8652C148.757 93.3032 149.114 93.7412 149.388 94.1791C149.662 94.6719 149.799 95.1919 149.799 95.7394C149.799 96.6701 149.498 97.3271 148.894 97.7103C148.291 98.0935 147.551 98.3946 146.673 98.6136C145.85 98.8326 144.973 99.0242 144.041 99.1884C143.163 99.4074 140.119 98.1602 139.516 98.6529H139.269C138.611 98.6529 138.117 98.4613 137.788 98.0781C137.459 97.6949 136.966 97.5033 136.307 97.5033C135.265 95.8061 134.552 93.89 134.168 91.7549C133.785 89.6745 133.593 87.6763 133.593 85.7602C133.593 83.4061 133.812 81.052 134.251 78.6979C134.635 76.3438 135.128 74.0171 135.732 71.7177C136.28 69.4184 136.883 67.1464 137.541 64.9018C138.254 62.6025 138.913 60.3031 139.516 58.0038L139.598 57.7574C139.598 57.4837 139.516 57.2921 139.351 57.1826C139.242 57.0731 139.187 56.9088 139.187 56.6898C139.187 56.5804 139.214 56.5256 139.269 56.5256C139.434 55.9781 139.598 55.4581 139.763 54.9653C139.982 54.4726 140.147 53.9252 140.256 53.3229C140.585 51.7901 140.805 50.2298 140.914 48.6421C141.079 46.9997 141.161 45.3847 141.161 43.7971C141.216 42.2094 141.271 40.6218 141.326 39.0342C141.435 37.3918 141.627 35.7767 141.902 34.1891C142.34 33.7511 142.752 33.2858 143.136 32.7931C143.52 32.3004 144.013 31.8624 144.616 31.4792C145.713 31.5339 146.81 31.6981 147.907 31.9719C149.004 32.2456 150.046 32.6836 151.033 33.2858C151.691 35.6399 152.13 37.994 152.35 40.3481C152.624 42.7022 153.063 45.0562 153.666 47.4103V47.6567C153.666 47.9304 153.803 48.0673 154.077 48.0673C154.406 48.0126 154.653 48.0947 154.818 48.3137C154.708 48.4779 154.626 48.6695 154.571 48.8885C154.571 49.1075 154.571 49.3265 154.571 49.5454V50.9415C154.681 51.3795 154.818 51.8448 154.982 52.3375C155.147 52.8302 155.503 53.1313 156.052 53.2408C156.326 54.9927 156.737 56.6077 157.286 58.0859C157.834 59.564 158.465 60.9874 159.178 62.3561C159.891 63.7248 160.659 65.0934 161.481 66.4621C162.304 67.776 163.154 69.172 164.032 70.6502C165.403 71.6904 166.582 72.8948 167.569 74.2634C168.556 75.5773 169.544 76.8639 170.531 78.123C171.573 79.3275 172.725 80.395 173.986 81.3257C175.302 82.2564 177.002 82.8312 179.087 83.0502C179.361 82.8312 179.553 82.5301 179.662 82.1469L180.074 80.9972C180.238 80.614 180.403 80.2855 180.567 80.0118C180.787 79.6833 181.088 79.437 181.472 79.2727C181.582 77.7398 181.692 76.1796 181.801 74.5919C181.966 73.0043 182.322 71.4987 182.871 70.0753C182.597 69.5826 182.46 68.9804 182.46 68.2687C182.46 67.7212 182.487 67.2011 182.542 66.7084C182.651 66.2157 182.706 65.723 182.706 65.2303C182.706 64.1901 182.487 63.3415 182.048 62.6846C182.048 62.3013 182.076 61.9181 182.13 61.5349C182.185 61.0969 182.35 60.6863 182.624 60.3031C182.185 59.2082 181.829 58.0585 181.555 56.8541C181.335 55.6497 181.226 54.4179 181.226 53.1587C181.226 52.447 181.308 51.7079 181.472 50.9415C181.143 50.1203 180.924 49.1622 180.814 48.0673L180.485 44.7004C180.375 43.5507 180.211 42.4832 179.991 41.4977C179.772 40.5123 179.361 39.7185 178.757 39.1163C179.087 38.6236 179.251 38.0487 179.251 37.3918C179.251 36.2968 179.087 35.2567 178.757 34.2712C178.428 33.2858 178.264 32.2456 178.264 31.1507C178.264 30.3842 178.428 29.6178 178.757 28.8513C179.964 28.9061 181.143 29.0429 182.295 29.2619C183.502 29.4262 184.681 29.5083 185.832 29.5083C186.162 29.9463 186.545 30.3021 186.984 30.5758C187.423 30.8496 187.889 31.1233 188.383 31.397C188.876 31.616 189.343 31.8624 189.781 32.1361C190.275 32.4098 190.659 32.7931 190.933 33.2858Z" fill="white"/>
<path d="M253.575 46.7534C253.575 47.3008 253.383 47.6567 252.999 47.8209C252.615 47.9852 252.423 48.3137 252.423 48.8064C252.423 48.9706 252.478 49.1075 252.588 49.217C252.697 49.3265 252.752 49.4907 252.752 49.7097V50.0382C252.094 53.2135 251.134 55.9781 249.873 58.3322C248.666 60.6863 247.24 62.8488 245.595 64.8197C243.95 66.7906 242.085 68.6519 240.001 70.4038C237.971 72.1557 235.778 73.9897 233.419 75.9058C232.761 76.4533 232.076 77.0007 231.363 77.5482C230.705 78.0957 230.074 78.6705 229.47 79.2727L227.661 80.9972C227.606 81.052 227.304 81.1888 226.756 81.4078C226.207 81.5721 225.878 81.6816 225.768 81.7363C225.001 82.0648 224.178 82.448 223.3 82.886C222.478 83.324 221.765 83.8714 221.161 84.5284C220.065 84.5284 219.132 84.6926 218.364 85.0211C217.597 85.3496 216.746 85.7875 215.814 86.335C215.54 86.335 215.293 86.2803 215.074 86.1708C214.909 86.0613 214.717 85.9518 214.498 85.8423C214.278 85.7328 214.032 85.678 213.757 85.678C213.538 85.6233 213.236 85.6507 212.852 85.7602C212.194 84.6652 211.481 83.7346 210.714 82.9681C209.946 82.2017 208.904 81.7363 207.587 81.5721C207.423 80.6414 207.039 79.9297 206.436 79.437C205.832 78.8895 205.229 78.3147 204.626 77.7124C204.516 77.384 204.434 77.0007 204.379 76.5628C204.324 76.1248 204.214 75.7142 204.05 75.331C203.885 74.9478 203.666 74.6193 203.392 74.3456C203.117 74.0718 202.734 73.935 202.24 73.935C202.185 73.6065 202.322 73.4422 202.651 73.4422C202.98 73.4422 203.145 73.3054 203.145 73.0316C203.145 72.7032 203.09 72.3747 202.98 72.0462C202.871 71.7177 202.816 71.3619 202.816 70.9786C202.816 70.7049 202.843 70.4586 202.898 70.2396C202.953 70.0206 203.035 69.7742 203.145 69.5005C202.98 68.0223 202.898 66.5168 202.898 64.9839C202.898 62.0276 203.09 59.1261 203.474 56.2793C203.913 53.3777 204.132 50.4488 204.132 47.4925C204.132 46.1785 204.05 44.8646 203.885 43.5507C203.776 42.2368 203.529 40.9503 203.145 39.6911C201.883 39.9648 200.622 40.2933 199.361 40.6765C198.099 41.005 196.92 41.4704 195.823 42.0726C195.22 41.6893 194.589 41.4704 193.931 41.4156C193.218 41.3061 192.532 41.1419 191.874 40.9229C191.49 40.1565 191.298 39.3626 191.298 38.5414C191.298 37.775 191.435 37.0359 191.71 36.3242L192.532 34.1891C193.849 33.9154 195.165 33.5048 196.481 32.9573C197.743 32.4098 199.032 31.9171 200.348 31.4792C200.787 31.3697 201.335 31.2328 201.993 31.0686C202.706 30.9043 203.2 30.7675 203.474 30.658C203.858 30.4937 204.105 30.1926 204.214 29.7546C204.379 29.2619 204.598 28.8513 204.872 28.5229H206.271C206.6 28.5229 206.957 28.5502 207.341 28.605C207.724 28.605 208.081 28.6871 208.41 28.8513C210.384 28.3586 212.359 28.0575 214.333 27.948C216.308 27.7838 218.337 27.5648 220.421 27.2911C220.64 27.2911 220.97 27.2637 221.408 27.2089L222.807 26.9626C223.3 26.8531 223.739 26.771 224.123 26.7162C224.562 26.6067 224.864 26.552 225.028 26.552C225.193 26.552 225.275 26.6341 225.275 26.7983H226.673C229.032 26.7983 231.335 27.0994 233.584 27.7017L240.33 29.5083C241.262 30.2747 242.195 31.0138 243.127 31.7255C244.059 32.4372 245.101 33.0668 246.253 33.6143C246.527 34.4902 246.939 35.2019 247.487 35.7494C248.09 36.2421 248.749 36.7896 249.462 37.3918C249.736 38.1035 250.092 38.8699 250.531 39.6911C251.025 40.4576 251.491 41.2514 251.93 42.0726C252.368 42.8938 252.752 43.715 253.081 44.5362C253.41 45.3026 253.575 46.0417 253.575 46.7534ZM245.924 47.9852C245.321 46.726 244.745 45.4121 244.196 44.0434C243.648 42.6748 242.962 41.443 242.14 40.3481C241.152 40.0743 240.138 39.7459 239.096 39.3626C238.109 38.9247 237.423 38.1856 237.039 37.1454C236.929 37.2001 236.737 37.2275 236.463 37.2275C235.97 37.2275 235.531 37.0359 235.147 36.6527C234.763 36.2695 234.324 36.0231 233.831 35.9136C233.392 35.8589 232.789 35.7767 232.021 35.6673C231.308 35.5578 230.54 35.4756 229.717 35.4209C228.895 35.3661 228.072 35.3114 227.249 35.2567C226.481 35.2019 225.878 35.1745 225.439 35.1745C225.001 35.1745 224.534 35.2019 224.041 35.2567C223.602 35.2567 223.136 35.284 222.642 35.3388C222.204 35.3388 221.929 35.4209 221.82 35.5851C221.71 35.6946 221.491 35.8041 221.161 35.9136C220.887 35.8041 220.586 35.7494 220.257 35.7494H219.269C218.118 35.7494 216.966 35.941 215.814 36.3242C214.717 36.6527 213.62 37.118 212.523 37.7202V38.0487C212.523 38.4867 212.715 38.733 213.099 38.7878C213.483 38.8425 213.703 39.0615 213.757 39.4447C213.483 39.4447 213.264 39.4721 213.099 39.5269C212.935 39.5269 212.852 39.7185 212.852 40.1017C212.852 40.6492 212.907 41.2514 213.017 41.9083C213.182 42.5653 213.264 43.2222 213.264 43.8792C213.264 44.3719 213.209 44.9468 213.099 45.6037C212.99 46.2607 212.715 46.7808 212.277 47.164C212.825 47.6567 213.099 48.3137 213.099 49.1349C213.099 49.6823 212.99 50.2572 212.77 50.8594C212.551 51.4616 212.277 51.9817 211.948 52.4196C211.838 54.719 211.618 57.0457 211.289 59.3998C210.96 61.7539 210.796 64.0806 210.796 66.38C210.796 67.5296 210.851 68.6519 210.96 69.7469C211.125 70.8418 211.372 71.9367 211.701 73.0316C212.304 73.6338 212.935 74.0992 213.593 74.4277C214.306 74.7561 215.046 75.0846 215.814 75.4131V75.6595C215.814 75.8237 215.704 75.9879 215.485 76.1522C215.266 76.3164 215.156 76.5354 215.156 76.8091C215.156 77.0281 215.266 77.1376 215.485 77.1376C217.788 76.4807 219.955 75.6868 221.984 74.7561C224.013 73.8255 225.906 72.5663 227.661 70.9786C227.825 70.8144 227.99 70.7323 228.154 70.7323C228.264 70.7323 228.401 70.7597 228.566 70.8144C228.785 70.8692 228.977 70.9239 229.141 70.9786L229.059 70.6502C229.059 70.3217 229.141 70.0206 229.306 69.7469C229.525 69.4731 229.772 69.2268 230.046 69.0078L230.869 68.2687C231.143 67.995 231.363 67.7212 231.527 67.4475C231.966 67.338 232.268 67.119 232.432 66.7906C232.652 66.4621 233.008 66.2978 233.502 66.2978C233.611 65.6956 233.913 65.2577 234.407 64.9839C234.9 64.6554 235.202 64.1901 235.311 63.5879C236.408 62.9857 237.368 62.2466 238.191 61.3707C239.068 60.4947 239.864 59.564 240.577 58.5786C241.344 57.5932 242.057 56.5804 242.716 55.5402C243.374 54.4452 244.059 53.4051 244.772 52.4196V52.0912C244.772 51.2152 244.909 50.5035 245.184 49.956C245.513 49.4086 245.759 48.7516 245.924 47.9852Z" fill="white"/>
<path d="M308.401 39.6911C308.072 40.1838 307.88 40.7313 307.825 41.3335C307.771 41.9357 307.743 42.4832 307.743 42.9759C307.743 43.6328 307.743 44.2898 307.743 44.9468C307.798 45.549 307.825 46.1512 307.825 46.7534V47.9852C307.716 48.3684 307.551 48.7516 307.332 49.1349C307.112 49.5181 306.948 49.9013 306.838 50.2845C306.07 52.3101 305.686 54.3358 305.686 56.3614V56.5256C305.412 57.1826 305.138 57.7848 304.864 58.3322C304.644 58.8797 304.425 59.4272 304.206 59.9746C303.986 60.4673 303.822 61.0148 303.712 61.617C303.602 62.1645 303.575 62.8214 303.63 63.5879C302.862 65.504 301.847 67.2559 300.586 68.8435C299.324 70.3764 298.09 71.9641 296.884 73.6065C295.732 74.0444 294.663 74.6193 293.675 75.331C292.743 76.0427 291.838 76.8365 290.961 77.7124C289.26 78.2599 287.588 78.8895 285.942 79.6012C284.297 80.3129 282.816 81.271 281.5 82.4754C280.458 82.5849 279.416 82.7491 278.374 82.9681C277.332 83.1871 276.317 83.5156 275.33 83.9535H274.342C273.849 83.9535 273.492 83.844 273.273 83.6251C272.56 84.0083 271.82 84.282 271.052 84.4463C270.284 84.5557 269.516 84.6105 268.748 84.6105C267.761 84.6105 266.774 84.5557 265.787 84.4463C264.854 84.282 263.895 84.1178 262.907 83.9535C262.359 83.1871 261.591 82.6122 260.604 82.229C259.617 81.7911 258.739 81.3805 257.971 80.9972C256.381 78.8074 255.229 76.6996 254.516 74.674C253.803 72.5937 253.063 70.2669 252.295 67.6939C252.404 66.9274 252.596 66.1883 252.871 65.4766C253.145 64.7102 253.255 63.889 253.2 63.0131C254.187 60.1662 255.476 57.5932 257.066 55.2938C258.712 52.9397 260.576 50.6951 262.66 48.56C262.66 48.2315 262.715 47.9578 262.825 47.7388C262.99 47.5198 263.017 47.1914 262.907 46.7534C262.962 46.8081 263.072 46.8355 263.236 46.8355C263.675 46.8355 263.949 46.726 264.059 46.507C264.169 46.2333 264.196 45.9322 264.141 45.6037C266.116 44.3445 267.898 42.8938 269.489 41.2514C271.134 39.609 272.999 38.2403 275.083 37.1454C275.247 36.6527 275.522 36.2421 275.906 35.9136C276.289 35.5851 276.591 35.2019 276.811 34.7639C278.566 34.2712 280.156 33.5321 281.582 32.5467C283.008 31.5613 284.516 30.6853 286.107 29.9189C286.984 29.4262 287.807 29.0977 288.575 28.9334C289.397 28.7145 290.275 28.4955 291.207 28.2765C291.536 28.167 291.838 28.0849 292.112 28.0301C292.387 27.9754 292.688 27.948 293.017 27.948C294.004 27.948 294.964 28.1396 295.897 28.5229C296.829 28.8513 297.789 29.0156 298.776 29.0156C299.05 29.0156 299.27 29.0156 299.434 29.0156C299.653 28.9608 299.873 28.9061 300.092 28.8513C301.025 30.001 302.204 30.8769 303.63 31.4792C303.959 32.3004 304.343 33.0121 304.781 33.6143C305.275 34.2165 305.769 34.8187 306.262 35.4209C306.756 35.9684 307.195 36.5979 307.579 37.3096C308.017 37.9666 308.292 38.7604 308.401 39.6911ZM300.174 43.9613C300.174 43.6876 300.147 43.4412 300.092 43.2222C299.544 43.058 299.023 42.839 298.529 42.5653C298.036 42.2916 297.487 42.1547 296.884 42.1547C296.5 42.1547 296.116 42.2368 295.732 42.4011C295.677 42.0178 295.513 41.7441 295.238 41.5799C295.019 41.4156 294.745 41.2788 294.416 41.1693C294.142 41.005 293.84 40.8955 293.511 40.8408C293.237 40.7313 292.99 40.5671 292.77 40.3481C292.606 39.9101 292.414 39.4721 292.195 39.0342C292.03 38.5414 291.701 38.1856 291.207 37.9666C290.714 38.4593 290.138 38.8699 289.48 39.1984C288.822 39.4721 288.136 39.7459 287.423 40.0196C286.765 40.2933 286.107 40.6218 285.449 41.005C284.845 41.3882 284.324 41.8536 283.886 42.4011H282.405C282.076 43.0033 281.609 43.4686 281.006 43.7971C280.403 44.0708 279.882 44.4814 279.443 45.0289C278.566 45.4668 277.743 46.0143 276.975 46.6713C276.262 47.2735 275.549 47.9304 274.836 48.6421C274.123 49.2991 273.41 49.9834 272.697 50.6951C272.039 51.4068 271.326 52.0638 270.558 52.666C269.845 54.1989 269.05 55.5402 268.172 56.6898C267.35 57.7848 266.555 58.9071 265.787 60.0568C265.074 61.2064 264.443 62.4656 263.895 63.8342C263.401 65.1482 263.154 66.7906 263.154 68.7614V69.5826C263.154 69.8563 263.182 70.1301 263.236 70.4038C263.949 71.1703 264.525 71.9915 264.964 72.8674C265.458 73.7433 266.253 74.3729 267.35 74.7561C268.447 75.1941 269.598 75.3857 270.805 75.331C272.066 75.2762 273.273 75.4131 274.425 75.7416C277.057 75.2489 279.58 74.455 281.993 73.3601C284.461 72.2104 286.792 70.8418 288.986 69.2541C289.315 68.9804 289.699 68.7067 290.138 68.4329C290.577 68.1045 290.933 67.776 291.207 67.4475C291.482 67.1738 291.701 66.8727 291.865 66.5442C292.085 66.2157 292.304 65.9146 292.524 65.6409C292.962 64.9292 293.456 64.2175 294.004 63.5058C294.553 62.7941 295.129 62.1371 295.732 61.5349C296.006 60.3305 296.363 59.1808 296.802 58.0859C297.24 56.9362 297.679 55.8139 298.118 54.719C298.557 53.6241 298.913 52.5018 299.187 51.3521C299.516 50.2024 299.681 48.998 299.681 47.7388C299.681 47.4651 299.653 47.164 299.599 46.8355C299.599 46.507 299.571 46.2059 299.516 45.9322C299.955 45.33 300.174 44.673 300.174 43.9613Z" fill="white"/>
<path d="M392.627 80.5045C392.352 81.3805 392.27 82.2564 392.38 83.1323C392.215 83.3513 392.023 83.4882 391.804 83.5429C391.585 83.5977 391.365 83.6798 391.146 83.7893C390.926 83.844 390.735 83.9535 390.57 84.1178C390.46 84.2273 390.46 84.4736 390.57 84.8568C388.76 84.9663 386.756 81.7363 385.111 82.3933C383.465 83.0502 381.848 83.7619 380.257 84.5284C379.434 84.2546 378.721 83.9262 378.118 83.5429C377.515 83.1597 376.747 82.9134 375.815 82.8039C374.882 80.9425 374.005 78.999 373.182 76.9734C372.414 74.893 372.03 72.8127 372.03 70.7323C372.03 69.1994 372.305 67.8034 372.853 66.5442C372.853 64.9018 372.99 63.2868 373.264 61.6991C373.539 60.1115 373.84 58.5512 374.169 57.0183C374.553 55.4307 374.882 53.843 375.156 52.2554C375.431 50.6678 375.568 49.0527 375.568 47.4103V45.6037C375.458 45.6037 375.321 45.7406 375.156 46.0143C374.992 46.2333 374.827 46.507 374.663 46.8355C374.553 47.1092 374.443 47.383 374.334 47.6567C374.224 47.9304 374.142 48.0947 374.087 48.1494C373.155 48.8611 372.414 49.7644 371.866 50.8594C371.372 51.8995 370.824 52.885 370.22 53.8157C369.453 54.9653 368.63 56.0876 367.752 57.1826C366.93 58.2775 365.888 59.1261 364.626 59.7283V59.8925C364.626 60.1662 364.544 60.3579 364.379 60.4673C364.215 60.5768 364.187 60.8506 364.297 61.2885C362.926 61.7265 361.637 62.3561 360.431 63.1773C359.279 63.9985 358.319 65.0387 357.551 66.2978C356.454 66.5716 355.412 66.9548 354.425 67.4475C353.493 67.8855 352.533 68.3782 351.546 68.9257C351.107 69.1446 350.641 69.4184 350.147 69.7469C349.654 70.0753 349.16 70.2943 348.666 70.4038C348.228 70.568 347.624 70.6775 346.856 70.7323C346.143 70.787 345.376 70.8418 344.553 70.8965C343.785 70.9513 343.017 70.9786 342.249 70.9786H340.44C340.165 70.9786 339.809 70.8418 339.37 70.568C338.931 70.2943 338.438 69.9932 337.889 69.6647C337.396 69.3363 336.875 69.0351 336.326 68.7614C335.778 68.4329 335.257 68.214 334.763 68.1045C334.324 66.6811 333.694 65.4219 332.871 64.327C332.103 63.1773 331.28 62.0276 330.403 60.8779C330.129 59.564 329.745 58.1954 329.251 56.772C328.812 55.3486 328.017 54.1715 326.865 53.2408C327.14 52.8576 327.277 52.4196 327.277 51.9269C327.277 51.3247 327.14 50.7499 326.865 50.2024C326.591 49.6549 326.454 49.0527 326.454 48.3958C326.454 47.9578 326.481 47.6293 326.536 47.4103C325.933 48.0673 325.494 48.9159 325.22 49.956C325.001 50.9415 324.891 51.8448 324.891 52.666C324.891 53.3229 324.973 53.9252 325.138 54.4726C324.589 55.2391 324.233 56.1971 324.068 57.3468C323.959 58.4965 323.904 59.5093 323.904 60.3852C323.904 61.4802 323.986 62.5477 324.151 63.5879C323.273 64.4638 322.834 65.5314 322.834 66.7906C322.834 67.5023 322.999 68.1318 323.328 68.6793C323.328 68.8983 323.273 69.0625 323.163 69.172C323.054 69.2815 322.917 69.3636 322.752 69.4184C322.642 69.4731 322.505 69.5552 322.341 69.6647C322.231 69.7195 322.176 69.8563 322.176 70.0753C322.176 70.3491 322.176 70.6502 322.176 70.9786C322.231 71.3071 322.258 71.6356 322.258 71.9641C322.258 72.7305 322.231 73.5244 322.176 74.3456C322.121 75.1667 322.094 75.9606 322.094 76.727C322.094 78.3147 322.231 79.4643 322.505 80.176C322.834 80.833 323.218 81.3257 323.657 81.6542C324.151 81.9827 324.672 82.3111 325.22 82.6396C325.768 82.9681 326.317 83.5977 326.865 84.5284C326.701 85.0211 326.399 85.4317 325.96 85.7602C325.577 86.0339 325.193 86.335 324.809 86.6635C324.48 86.9372 324.178 87.2657 323.904 87.6489C323.63 88.0321 323.52 88.5796 323.575 89.2913H323.163C322.45 89.2913 321.765 89.4008 321.107 89.6198C320.449 89.8388 319.763 89.9483 319.05 89.9483C318.885 89.9483 318.721 89.9209 318.556 89.8661C318.392 89.8661 318.227 89.8661 318.063 89.8661L317.24 89.3734C316.966 89.2092 316.692 89.1271 316.417 89.1271C316.143 89.1271 315.787 89.1818 315.348 89.2913C314.58 86.8277 313.977 84.282 313.538 81.6542C313.154 79.0264 312.962 76.4533 312.962 73.935C312.962 73.6612 313.017 73.3875 313.127 73.1138C313.291 72.7853 313.511 72.6758 313.785 72.7853V71.225C313.785 69.5279 313.922 67.8855 314.196 66.2978C314.525 64.6554 314.69 62.9583 314.69 61.2064C314.69 60.7137 314.662 60.221 314.608 59.7283C314.608 59.2356 314.58 58.7702 314.525 58.3322C314.799 57.4016 315.074 56.4709 315.348 55.5402C315.677 54.5547 315.842 53.5419 315.842 52.5018C315.842 52.0638 315.759 51.5437 315.595 50.9415C316.033 50.613 316.363 50.2024 316.582 49.7097C316.801 49.1622 316.966 48.5874 317.076 47.9852C317.185 47.3282 317.267 46.6986 317.322 46.0964C317.377 45.4942 317.432 44.9468 317.487 44.454C318.035 43.3591 318.337 42.1821 318.392 40.9229C318.447 39.6637 318.721 38.4867 319.215 37.3918C319.16 37.1728 319.132 36.7896 319.132 36.2421C319.132 35.1472 319.297 34.0522 319.626 32.9573C320.01 31.8076 320.75 30.9317 321.847 30.3295C322.834 30.7127 323.986 30.9043 325.302 30.9043C326.564 30.9043 327.77 30.7127 328.922 30.3295C329.251 30.439 329.553 30.5758 329.827 30.7401C330.101 30.8496 330.375 30.9864 330.65 31.1507C330.979 31.2602 331.308 31.3697 331.637 31.4792C331.966 31.5339 332.35 31.5339 332.789 31.4792C333.337 33.0668 333.803 34.6818 334.187 36.3242C334.626 37.9666 334.955 39.6364 335.174 41.3335C335.284 42.0452 335.312 42.8116 335.257 43.6328C335.257 44.454 335.312 45.2205 335.421 45.9322C335.476 46.3702 335.613 46.7808 335.833 47.164C336.052 47.4925 336.271 47.8757 336.491 48.3137C336.71 48.7516 336.875 49.2443 336.984 49.7918C337.149 50.3393 337.204 51.0236 337.149 51.8448C337.752 53.2682 338.41 54.6369 339.123 55.9508C339.891 57.2099 340.714 58.4691 341.591 59.7283C342.085 59.8925 342.524 60.1115 342.908 60.3852C343.291 60.6042 343.538 60.9874 343.648 61.5349C344.142 61.5349 344.58 61.617 344.964 61.7813L346.363 62.1919C348.447 61.5349 350.366 60.659 352.122 59.564C353.931 58.4691 355.824 57.5384 357.798 56.772C360.211 54.4179 362.295 51.8174 364.05 48.9706C365.805 46.0691 367.56 43.1949 369.315 40.3481V38.5414C369.645 38.3772 369.919 38.1856 370.138 37.9666C370.412 37.6929 370.741 37.5013 371.125 37.3918C371.18 36.7348 371.317 36.1052 371.537 35.503C371.811 34.8461 372.085 34.2438 372.359 33.6964C372.688 33.0942 372.963 32.5193 373.182 31.9719C373.401 31.3697 373.511 30.7401 373.511 30.0831C373.511 29.6999 373.484 29.3714 373.429 29.0977C374.251 28.2765 375.239 27.8659 376.39 27.8659C377.487 27.8659 378.584 28.1396 379.681 28.6871C380.833 29.1798 381.902 29.6452 382.89 30.0831C383.493 31.397 383.932 32.7931 384.206 34.2712C384.535 35.6946 384.754 37.1728 384.864 38.7057C384.974 40.2386 385.029 41.7715 385.029 43.3044V49.1349C384.974 49.5728 384.809 49.9013 384.535 50.1203C384.316 50.2845 384.151 50.5583 384.041 50.9415V51.7627C384.041 52.0364 384.014 52.3101 383.959 52.5839C383.959 53.7335 383.822 54.938 383.548 56.1971C383.273 57.7848 382.917 59.3998 382.478 61.0422C382.094 62.6298 381.902 64.2448 381.902 65.8872C381.902 66.4894 381.93 67.0917 381.985 67.6939C382.039 68.2961 382.149 68.8983 382.314 69.5005C382.039 69.9932 381.902 70.6228 381.902 71.3892C381.902 72.2652 382.039 73.0864 382.314 73.8528C382.643 74.5645 383.027 75.2762 383.465 75.9879C384.233 75.9879 385.001 75.9606 385.769 75.9058C386.537 75.8511 387.332 75.8237 388.155 75.8237C389.199 79.437 389.912 79.5191 390.57 79.6833C391.228 79.7928 391.914 80.0665 392.627 80.5045Z" fill="white"/>
<path d="M451.784 62.8488C451.235 62.9036 450.742 63.0404 450.303 63.2594C449.919 63.4784 449.508 63.6426 449.069 63.7521C449.124 63.8069 449.151 63.889 449.151 63.9985C449.151 64.327 449.069 64.5733 448.904 64.7376C448.74 64.8471 448.712 65.1208 448.822 65.5588C447.999 65.9967 447.149 66.3252 446.272 66.5442C445.394 66.7632 444.489 66.9548 443.557 67.119C442.679 67.2833 441.802 67.4749 440.924 67.6939C440.047 67.9128 439.224 68.2687 438.456 68.7614V67.8581C437.798 68.2413 437.168 68.4329 436.564 68.4329C436.016 68.4329 435.495 68.3508 435.001 68.1866C434.508 67.9676 433.959 67.8581 433.356 67.8581C433.082 67.8581 432.725 67.9676 432.286 68.1866C431.738 68.1318 431.299 67.995 430.97 67.776C430.696 67.5023 430.339 67.2285 429.901 66.9548C429.626 67.5023 429.215 67.8581 428.667 68.0223C428.173 68.1318 427.707 68.1866 427.268 68.1866C426.665 68.1866 426.089 68.1592 425.54 68.1045C425.047 68.0497 424.553 67.9676 424.06 67.8581C423.182 68.1318 422.359 68.2961 421.592 68.3508C420.824 68.3508 420.001 68.3508 419.124 68.3508C418.356 68.3508 417.615 68.4056 416.902 68.5151C416.244 68.5698 415.559 68.7614 414.846 69.0899C414.626 68.5424 414.16 68.2687 413.447 68.2687C413.118 68.2687 412.761 68.2961 412.378 68.3508C412.048 68.3508 411.719 68.3508 411.39 68.3508C410.842 68.3508 410.431 68.1866 410.156 67.8581C409.937 67.9676 409.827 68.1592 409.827 68.4329C409.882 68.7067 409.882 68.9257 409.827 69.0899C409.005 68.7614 408.127 68.5972 407.195 68.5972C406.427 68.5972 405.686 68.6793 404.973 68.8435C404.26 69.0078 403.548 69.0899 402.835 69.0899C402.451 69.0899 402.067 69.0351 401.683 68.9257C401.299 68.8162 400.97 68.7614 400.696 68.7614C400.367 68.7614 400.12 68.8435 399.955 69.0078C399.791 69.1173 399.626 69.2541 399.462 69.4184C399.352 69.5279 399.187 69.6647 398.968 69.829C398.803 69.9385 398.557 69.9932 398.228 69.9932C397.624 69.9932 397.213 69.829 396.994 69.5005C396.774 69.1173 396.445 68.8709 396.006 68.7614C396.006 68.214 395.924 67.7212 395.76 67.2833C395.595 66.8453 395.403 66.4073 395.184 65.9694C394.964 65.4766 394.772 65.0113 394.608 64.5733C394.443 64.1354 394.361 63.6426 394.361 63.0952C394.361 62.9309 394.361 62.7667 394.361 62.6025C394.416 62.3835 394.443 62.1919 394.443 62.0276C395.211 60.9327 396.308 60.1662 397.734 59.7283C399.215 59.2356 400.558 58.9892 401.765 58.9892C402.368 58.9892 402.807 59.0987 403.081 59.3177C403.41 59.5367 403.794 59.8378 404.233 60.221C408.072 59.783 411.911 59.4819 415.751 59.3177C419.645 59.1534 423.511 58.9618 427.35 58.7428C428.612 58.6333 429.873 58.5512 431.135 58.4965C432.396 58.387 433.657 58.2775 434.919 58.168C435.083 58.168 435.193 58.1133 435.248 58.0038C435.303 57.8395 435.33 57.6753 435.33 57.511C435.385 57.3468 435.44 57.2099 435.495 57.1004C435.604 56.991 435.769 56.9362 435.988 56.9362C436.592 56.9362 437.003 57.1278 437.222 57.511C437.442 57.8395 437.771 58.0585 438.21 58.168C438.593 57.949 439.032 57.7848 439.526 57.6753C440.074 57.5658 440.595 57.4837 441.089 57.4289C441.583 57.3194 442.049 57.2099 442.487 57.1004C442.981 56.9362 443.392 56.6898 443.721 56.3614C444.16 56.3066 444.407 56.4161 444.462 56.6898C444.517 56.9088 444.681 57.0731 444.956 57.1826C445.23 57.1278 445.531 57.0731 445.86 57.0183C446.19 56.9088 446.491 56.8541 446.765 56.8541H447.341C447.561 56.8541 447.753 56.8815 447.917 56.9362C448.411 58.0311 449.041 59.0166 449.809 59.8925C450.632 60.7685 451.29 61.7539 451.784 62.8488Z" fill="white"/>
<path d="M573 105.633C573 106.235 572.863 106.81 572.589 107.358C571.492 107.96 570.34 108.37 569.133 108.589C567.982 108.863 566.83 109 565.678 109C565.13 109 564.526 108.973 563.868 108.918C563.265 108.918 562.717 108.863 562.223 108.754C562.058 108.699 561.866 108.589 561.647 108.425C561.428 108.261 561.208 108.179 560.989 108.179C560.44 108.179 559.919 108.261 559.426 108.425C558.932 108.644 558.411 108.754 557.863 108.754C557.589 108.754 557.314 108.672 557.04 108.507C556.821 108.343 556.574 108.234 556.3 108.179C555.916 108.069 555.532 108.042 555.148 108.097C554.764 108.151 554.353 108.179 553.914 108.179C553.311 108.179 552.762 108.097 552.269 107.932C551.83 107.768 551.418 107.467 551.035 107.029C549.663 106.865 548.32 106.591 547.003 106.208C545.687 105.879 544.371 105.496 543.055 105.058C541.738 104.675 540.422 104.292 539.106 103.909C537.789 103.58 536.446 103.361 535.075 103.252C534.746 102.868 534.362 102.567 533.923 102.348C533.484 102.184 533.155 101.883 532.936 101.445C532.661 101.445 532.47 101.472 532.36 101.527C532.25 101.637 532.058 101.691 531.784 101.691C530.852 100.925 529.837 100.268 528.74 99.7205C527.698 99.173 526.601 98.6529 525.449 98.1602C524.352 97.6675 523.256 97.1474 522.159 96.5999C521.117 96.1072 520.129 95.4503 519.197 94.6291H518.786C518.347 94.6838 517.963 94.5743 517.634 94.3006C517.36 94.0816 517.003 93.9721 516.564 93.9721C516.29 93.9721 516.071 93.9995 515.906 94.0542C515.742 93.6163 515.495 93.2604 515.166 92.9867C514.837 92.713 514.48 92.4392 514.096 92.1655C513.767 91.9465 513.438 91.7001 513.109 91.4264C512.78 91.2074 512.533 90.9063 512.369 90.5231C510.998 90.0304 509.654 89.4282 508.338 88.7165C507.076 88.0595 505.952 87.1836 504.965 86.0886C503.868 85.9792 502.963 85.6507 502.25 85.1032C501.537 84.501 500.879 83.7619 500.275 82.886C498.959 82.448 497.753 81.8732 496.656 81.1615C495.559 80.4498 494.462 79.7107 493.365 78.9442C492.323 78.1778 491.199 77.4935 489.992 76.8913C488.84 76.2343 487.524 75.769 486.043 75.4952C485.988 75.112 485.824 74.8383 485.55 74.674C485.275 74.455 484.946 74.2908 484.562 74.1813C484.233 74.0171 483.904 73.8802 483.575 73.7707C483.246 73.6612 482.999 73.4422 482.835 73.1138C482.67 73.1138 482.506 73.1138 482.341 73.1138C482.177 73.059 482.012 73.0316 481.848 73.0316C481.683 73.0316 481.491 73.059 481.272 73.1138C481.107 73.1138 480.943 73.1138 480.778 73.1138L480.86 72.8674C480.86 72.6484 480.778 72.5115 480.614 72.4568C480.504 72.4021 480.339 72.3473 480.12 72.2926C479.901 72.2378 479.709 72.1557 479.544 72.0462C479.38 71.9367 479.297 71.6904 479.297 71.3071H479.05C478.447 71.3071 477.899 71.1976 477.405 70.9786C476.911 70.7597 476.363 70.5954 475.76 70.4859C475.65 71.0881 475.595 71.663 475.595 72.2104V73.6886C475.595 76.1522 475.869 78.7526 476.418 81.4899C476.966 84.1725 477.816 86.5814 478.968 88.7165C480.12 89.1544 481.107 89.7293 481.93 90.441C482.753 91.1527 483.548 91.9739 484.316 92.9046C484.37 94.3827 483.822 95.6145 482.67 96.5999C481.573 97.6401 480.284 98.1602 478.804 98.1602C477.981 98.1602 477.213 97.9412 476.5 97.5033C475.842 97.12 475.294 96.5452 474.855 95.7787C474.526 95.7787 474.224 95.8335 473.95 95.943C473.676 96.1072 473.347 96.1893 472.963 96.1893C472.798 96.1893 472.634 96.162 472.469 96.1072C471.921 95.1765 471.372 94.3553 470.824 93.6436C470.33 92.9319 470.001 91.9739 469.836 90.7695C469.233 90.4957 468.849 90.003 468.685 89.2913C468.575 88.5796 468.273 88.0048 467.78 87.5668C467.56 85.1032 467.259 82.6396 466.875 80.176C466.546 77.7124 466.381 75.2489 466.381 72.7853C466.381 72.2378 466.409 71.6904 466.464 71.1429C466.518 70.5407 466.573 69.9385 466.628 69.3363C466.518 69.0625 466.354 68.8162 466.134 68.5972C465.97 68.3234 465.833 68.0497 465.723 67.776C464.626 68.0497 463.474 68.3234 462.268 68.5972C461.116 68.8162 459.937 68.9257 458.73 68.9257C457.963 68.9257 457.03 68.8162 455.933 68.5972C454.836 68.3234 453.986 67.9676 453.383 67.5296C452.944 67.2559 452.643 66.7632 452.478 66.0515C452.259 65.285 452.149 64.6281 452.149 64.0806C452.149 63.1499 452.314 62.2192 452.643 61.2885C452.972 60.3031 453.41 59.4545 453.959 58.7428C456.646 57.6479 459.142 56.3066 461.445 54.719C463.804 53.1313 466.107 51.4068 468.356 49.5454C468.411 48.998 468.493 48.4505 468.602 47.9031C468.767 47.3556 468.849 46.7808 468.849 46.1785C468.849 45.5216 468.685 44.892 468.356 44.2898C468.685 43.9613 468.849 43.5507 468.849 43.058C468.849 42.5105 468.986 42.0178 469.261 41.5799V41.0871C469.261 40.8682 469.233 40.6492 469.178 40.4302C469.178 40.2112 469.096 39.9922 468.932 39.7732C469.315 37.6381 469.617 35.5304 469.836 33.45C470.056 31.3149 470.166 29.1251 470.166 26.8805C470.166 26.7162 470.248 26.2783 470.412 25.5665C470.632 24.8001 470.769 24.28 470.824 24.0063C471.043 22.7471 471.18 21.5153 471.235 20.3109C471.345 19.0517 471.482 17.7926 471.646 16.5334C471.701 16.0954 468.925 16.0681 469.09 15.3564C469.254 14.6446 469.336 14.1519 469.336 13.8782C469.336 13.495 469.254 13.2486 469.09 13.1391C468.98 12.9749 468.87 12.7285 468.76 12.4C469.09 11.1409 472.14 9.33425 472.14 8.07509C472.195 6.76118 472.305 5.47464 472.469 4.21547C473.401 3.83224 474.142 3.44902 474.69 3.0658C475.239 2.68257 476.034 2.49096 477.076 2.49096H477.241C477.35 3.14792 477.597 3.7775 477.981 4.37971C478.365 4.92717 478.749 5.50201 479.133 6.10422C479.572 6.65168 479.955 7.19915 480.284 7.74661C480.614 8.23933 480.778 8.73204 480.778 9.22476C480.778 10.1554 480.696 11.1683 480.531 12.2632C480.367 13.3581 480.23 14.3709 480.12 15.3016C479.846 17.7652 479.599 20.2014 479.38 22.6102C479.16 24.9643 478.831 27.3732 478.392 29.8368C478.557 30.6032 478.639 31.3149 478.639 31.9719C478.639 32.9573 478.557 33.9427 478.392 34.9282C478.228 35.9136 478.146 36.9264 478.146 37.9666C478.146 38.4593 478.173 38.9794 478.228 39.5269C478.337 40.0743 478.502 40.5671 478.721 41.005C480.586 40.5123 482.259 39.4995 483.74 37.9666C483.959 37.7476 484.178 37.4739 484.398 37.1454C484.672 36.7622 484.946 36.4611 485.221 36.2421C485.769 35.8041 486.345 35.4209 486.948 35.0924C487.606 34.7092 488.237 34.326 488.84 33.9427C490.266 33.0121 491.637 32.054 492.954 31.0686C494.325 30.0284 495.696 29.0156 497.067 28.0301C501.126 25.0738 505.047 22.008 508.831 18.8327C512.67 15.6027 516.4 12.2084 520.02 8.64992C520.184 7.71924 520.513 6.98016 521.007 6.4327C521.5 5.88523 521.939 5.22828 522.323 4.46183C523.365 4.0786 524.27 3.50377 525.038 2.73732C525.367 2.84681 525.696 2.92893 526.025 2.98368C526.409 2.98368 526.766 2.98368 527.095 2.98368C527.479 2.98368 527.835 3.01105 528.164 3.0658C528.548 3.0658 528.877 3.14792 529.151 3.31215C529.206 4.13335 529.289 4.87243 529.398 5.52938C529.508 6.18634 529.837 6.81592 530.385 7.41813C530.385 7.52762 530.385 7.63712 530.385 7.74661C530.44 7.8561 530.468 7.96559 530.468 8.07509C530.468 8.6773 530.303 9.17001 529.974 9.55324C529.645 9.93646 529.453 10.4018 529.398 10.9493L525.12 15.2195C523.694 16.6429 522.378 18.1758 521.171 19.8182C520.733 19.8729 520.349 20.0098 520.02 20.2288C519.691 20.4478 519.362 20.6941 519.032 20.9679C518.758 21.1868 518.457 21.4058 518.128 21.6248C517.798 21.8438 517.442 22.008 517.058 22.1175C516.071 23.4314 514.947 24.6359 513.685 25.7308C512.424 26.771 511.135 27.7838 509.819 28.7692C508.502 29.7546 507.186 30.7675 505.87 31.8076C504.608 32.7931 503.429 33.888 502.332 35.0924C501.18 35.6399 500.056 36.2968 498.959 37.0633C497.917 37.775 497.067 38.6783 496.409 39.7732H495.998C495.723 39.7732 495.504 39.8553 495.339 40.0196C495.175 40.1291 494.956 40.1838 494.681 40.1838C491.72 42.7569 488.648 45.1931 485.467 47.4925C482.286 49.7371 479.242 52.2006 476.336 54.8832V56.9362C477.268 57.4837 478.283 58.0038 479.38 58.4965C480.476 58.9344 481.546 59.4272 482.588 59.9746C483.685 60.5221 484.699 61.1243 485.632 61.7813C486.619 62.3835 487.469 63.1225 488.182 63.9985C488.292 63.9437 488.429 63.9164 488.594 63.9164C489.087 63.9164 489.471 64.0806 489.745 64.4091C490.019 64.6828 490.486 64.7649 491.144 64.6554C491.363 65.5314 491.857 66.161 492.625 66.5442C493.392 66.9274 494.16 67.2559 494.928 67.5296C495.586 68.1866 496.19 68.8162 496.738 69.4184C497.286 69.9658 498.082 70.3217 499.124 70.4859C499.233 70.7049 499.316 70.9513 499.371 71.225C499.425 71.4987 499.535 71.7451 499.7 71.9641C500.742 72.2926 501.729 72.7579 502.661 73.3601C503.648 73.9623 504.608 74.5919 505.541 75.2489C506.473 75.8511 507.405 76.4533 508.338 77.0555C509.325 77.603 510.367 78.0409 511.464 78.3694C511.628 78.9169 511.93 79.3001 512.369 79.5191C512.862 79.7381 513.246 80.0665 513.521 80.5045H515.001C515.166 80.7782 515.385 81.052 515.659 81.3257C515.934 81.5447 516.126 81.8732 516.235 82.3111C516.674 82.4206 517.168 82.5849 517.716 82.8039C518.265 82.9681 518.758 83.1871 519.197 83.4608C519.362 83.6251 519.471 83.8167 519.526 84.0357C519.636 84.2546 519.8 84.4463 520.02 84.6105C520.349 84.8842 520.842 85.1032 521.5 85.2674C522.214 85.3769 522.817 85.5686 523.31 85.8423C524.298 86.3897 525.257 86.992 526.19 87.6489C527.122 88.3606 528.109 89.0176 529.151 89.6198L532.36 91.3443C532.908 91.618 533.402 91.9191 533.841 92.2476C534.334 92.5761 534.828 92.8772 535.321 93.1509C536.309 93.5889 537.351 93.8626 538.448 93.9721C539.599 94.1364 540.641 94.4375 541.574 94.8754C541.848 95.0397 542.04 95.2313 542.15 95.4503C542.259 95.724 542.451 95.943 542.726 96.1072C543.164 96.381 543.85 96.5726 544.782 96.6821C545.715 96.7916 546.482 96.9832 547.086 97.2569C547.854 97.5854 548.594 97.8865 549.307 98.1602C550.075 98.4887 550.843 98.8719 551.61 99.3099C553.256 99.4194 554.874 99.611 556.464 99.8847C558.11 100.158 559.727 100.432 561.318 100.706C562.909 100.98 564.499 101.226 566.09 101.445C567.735 101.664 569.38 101.746 571.026 101.691C571.026 101.801 571.08 101.856 571.19 101.856C571.355 101.91 571.492 101.938 571.601 101.938C571.985 102.54 572.314 103.142 572.589 103.744C572.863 104.347 573 104.976 573 105.633Z" fill="white"/>
</svg>
